<svg width="54" height="54" viewBox="0 0 54 54" fill="none" xmlns="http://www.w3.org/2000/svg">
<rect x="1" y="1" width="52" height="52" fill="white"/>
<rect x="1" y="1" width="52" height="52" stroke="white" stroke-width="2"/>
<path d="M6 46.9922V12.7132C6 9.55787 8.55787 7 11.7132 7H48.2775V41.279C48.2775 44.4343 45.7196 46.9922 42.5643 46.9922H26.5515H6Z" stroke="url(#paint0_linear_2359_24348)" stroke-width="2.28527"/>
<path d="M44.8441 9.28711H9.43359V44.6976H44.8441V9.28711Z" fill="white"/>
<g filter="url(#filter0_d_2359_24348)">
<path d="M21.6758 12.7248L22.2033 13.2524L22.7309 12.7248L22.2033 12.1973L21.6758 12.7248Z" fill="black"/>
<path d="M24.8359 12.7248L25.3635 13.2524L25.891 12.7248L25.3635 12.1973L24.8359 12.7248Z" fill="black"/>
<path d="M25.8906 12.7248L26.4182 13.2524L26.9457 12.7248L26.4182 12.1973L25.8906 12.7248Z" fill="black"/>
<path d="M29.0547 12.7248L29.5822 13.2524L30.1098 12.7248L29.5822 12.1973L29.0547 12.7248Z" fill="black"/>
<path d="M31.1641 12.7248L31.6916 13.2524L32.2191 12.7248L31.6916 12.1973L31.1641 12.7248Z" fill="black"/>
<path d="M22.7344 13.7814L23.2619 14.309L23.7895 13.7814L23.2619 13.2539L22.7344 13.7814Z" fill="black"/>
<path d="M25.8906 13.7814L26.4182 14.309L26.9457 13.7814L26.4182 13.2539L25.8906 13.7814Z" fill="black"/>
<path d="M26.9414 13.7814L27.4689 14.309L27.9965 13.7814L27.4689 13.2539L26.9414 13.7814Z" fill="black"/>
<path d="M28.0039 13.7814L28.5314 14.309L29.059 13.7814L28.5314 13.2539L28.0039 13.7814Z" fill="black"/>
<path d="M30.1133 13.7814L30.6408 14.309L31.1684 13.7814L30.6408 13.2539L30.1133 13.7814Z" fill="black"/>
<path d="M31.1641 13.7814L31.6916 14.309L32.2191 13.7814L31.6916 13.2539L31.1641 13.7814Z" fill="black"/>
<path d="M21.6758 14.8342L22.2033 15.3617L22.7309 14.8342L22.2033 14.3066L21.6758 14.8342Z" fill="black"/>
<path d="M22.7344 14.8342L23.2619 15.3617L23.7895 14.8342L23.2619 14.3066L22.7344 14.8342Z" fill="black"/>
<path d="M23.7852 14.8342L24.3127 15.3617L24.8402 14.8342L24.3127 14.3066L23.7852 14.8342Z" fill="black"/>
<path d="M25.8906 14.8342L26.4182 15.3617L26.9457 14.8342L26.4182 14.3066L25.8906 14.8342Z" fill="black"/>
<path d="M29.0547 14.8342L29.5822 15.3617L30.1098 14.8342L29.5822 14.3066L29.0547 14.8342Z" fill="black"/>
<path d="M30.1133 14.8342L30.6408 15.3617L31.1684 14.8342L30.6408 14.3066L30.1133 14.8342Z" fill="black"/>
<path d="M31.1641 14.8342L31.6916 15.3617L32.2191 14.8342L31.6916 14.3066L31.1641 14.8342Z" fill="black"/>
<path d="M22.7344 15.8869L23.2619 16.4145L23.7895 15.8869L23.2619 15.3594L22.7344 15.8869Z" fill="black"/>
<path d="M25.8906 15.8869L26.4182 16.4145L26.9457 15.8869L26.4182 15.3594L25.8906 15.8869Z" fill="black"/>
<path d="M26.9414 15.8869L27.4689 16.4145L27.9965 15.8869L27.4689 15.3594L26.9414 15.8869Z" fill="black"/>
<path d="M28.0039 15.8869L28.5314 16.4145L29.059 15.8869L28.5314 15.3594L28.0039 15.8869Z" fill="black"/>
<path d="M31.1641 15.8869L31.6916 16.4145L32.2191 15.8869L31.6916 15.3594L31.1641 15.8869Z" fill="black"/>
<path d="M32.2188 15.8869L32.7463 16.4145L33.2738 15.8869L32.7463 15.3594L32.2188 15.8869Z" fill="black"/>
<path d="M25.8906 16.9416L26.4182 17.4691L26.9457 16.9416L26.4182 16.4141L25.8906 16.9416Z" fill="black"/>
<path d="M26.9414 16.9416L27.4689 17.4691L27.9965 16.9416L27.4689 16.4141L26.9414 16.9416Z" fill="black"/>
<path d="M29.0547 16.9416L29.5822 17.4691L30.1098 16.9416L29.5822 16.4141L29.0547 16.9416Z" fill="black"/>
<path d="M30.1133 16.9416L30.6408 17.4691L31.1684 16.9416L30.6408 16.4141L30.1133 16.9416Z" fill="black"/>
<path d="M31.1641 16.9416L31.6916 17.4691L32.2191 16.9416L31.6916 16.4141L31.1641 16.9416Z" fill="black"/>
<path d="M33.2734 16.9416L33.801 17.4691L34.3285 16.9416L33.801 16.4141L33.2734 16.9416Z" fill="black"/>
<path d="M20.6133 17.9943L21.1408 18.5219L21.6684 17.9943L21.1408 17.4668L20.6133 17.9943Z" fill="black"/>
<path d="M22.7344 17.9943L23.2619 18.5219L23.7895 17.9943L23.2619 17.4668L22.7344 17.9943Z" fill="black"/>
<path d="M23.7852 17.9943L24.3127 18.5219L24.8402 17.9943L24.3127 17.4668L23.7852 17.9943Z" fill="black"/>
<path d="M24.8359 17.9943L25.3635 18.5219L25.891 17.9943L25.3635 17.4668L24.8359 17.9943Z" fill="black"/>
<path d="M25.8906 17.9943L26.4182 18.5219L26.9457 17.9943L26.4182 17.4668L25.8906 17.9943Z" fill="black"/>
<path d="M26.9414 17.9943L27.4689 18.5219L27.9965 17.9943L27.4689 17.4668L26.9414 17.9943Z" fill="black"/>
<path d="M30.1133 17.9943L30.6408 18.5219L31.1684 17.9943L30.6408 17.4668L30.1133 17.9943Z" fill="black"/>
<path d="M31.1641 17.9943L31.6916 18.5219L32.2191 17.9943L31.6916 17.4668L31.1641 17.9943Z" fill="black"/>
<path d="M32.2188 17.9943L32.7463 18.5219L33.2738 17.9943L32.7463 17.4668L32.2188 17.9943Z" fill="black"/>
<path d="M33.2734 17.9943L33.801 18.5219L34.3285 17.9943L33.801 17.4668L33.2734 17.9943Z" fill="black"/>
<path d="M20.6133 19.0549L21.1408 19.5824L21.6684 19.0549L21.1408 18.5273L20.6133 19.0549Z" fill="black"/>
<path d="M22.7344 19.0549L23.2619 19.5824L23.7895 19.0549L23.2619 18.5273L22.7344 19.0549Z" fill="black"/>
<path d="M24.8359 19.0549L25.3635 19.5824L25.891 19.0549L25.3635 18.5273L24.8359 19.0549Z" fill="black"/>
<path d="M26.9414 19.0549L27.4689 19.5824L27.9965 19.0549L27.4689 18.5273L26.9414 19.0549Z" fill="black"/>
<path d="M29.0547 19.0549L29.5822 19.5824L30.1098 19.0549L29.5822 18.5273L29.0547 19.0549Z" fill="black"/>
<path d="M31.1641 19.0549L31.6916 19.5824L32.2191 19.0549L31.6916 18.5273L31.1641 19.0549Z" fill="black"/>
<path d="M33.2734 19.0549L33.801 19.5824L34.3285 19.0549L33.801 18.5273L33.2734 19.0549Z" fill="black"/>
<path d="M23.7852 20.1096L24.3127 20.6371L24.8402 20.1096L24.3127 19.582L23.7852 20.1096Z" fill="black"/>
<path d="M26.9414 20.1096L27.4689 20.6371L27.9965 20.1096L27.4689 19.582L26.9414 20.1096Z" fill="black"/>
<path d="M30.1133 20.1096L30.6408 20.6371L31.1684 20.1096L30.6408 19.582L30.1133 20.1096Z" fill="black"/>
<path d="M31.1641 20.1096L31.6916 20.6371L32.2191 20.1096L31.6916 19.582L31.1641 20.1096Z" fill="black"/>
<path d="M33.2734 20.1096L33.801 20.6371L34.3285 20.1096L33.801 19.582L33.2734 20.1096Z" fill="black"/>
<path d="M12.1797 21.1701L12.7072 21.6977L13.2348 21.1701L12.7072 20.6426L12.1797 21.1701Z" fill="black"/>
<path d="M15.3516 21.1701L15.8791 21.6977L16.4066 21.1701L15.8791 20.6426L15.3516 21.1701Z" fill="black"/>
<path d="M17.4531 21.1701L17.9807 21.6977L18.5082 21.1701L17.9807 20.6426L17.4531 21.1701Z" fill="black"/>
<path d="M18.5117 21.1701L19.0393 21.6977L19.5668 21.1701L19.0393 20.6426L18.5117 21.1701Z" fill="black"/>
<path d="M20.6133 21.1701L21.1408 21.6977L21.6684 21.1701L21.1408 20.6426L20.6133 21.1701Z" fill="black"/>
<path d="M21.6758 21.1701L22.2033 21.6977L22.7309 21.1701L22.2033 20.6426L21.6758 21.1701Z" fill="black"/>
<path d="M22.7344 21.1701L23.2619 21.6977L23.7895 21.1701L23.2619 20.6426L22.7344 21.1701Z" fill="black"/>
<path d="M23.7852 21.1701L24.3127 21.6977L24.8402 21.1701L24.3127 20.6426L23.7852 21.1701Z" fill="black"/>
<path d="M24.8359 21.1701L25.3635 21.6977L25.891 21.1701L25.3635 20.6426L24.8359 21.1701Z" fill="black"/>
<path d="M28.0039 21.1701L28.5314 21.6977L29.059 21.1701L28.5314 20.6426L28.0039 21.1701Z" fill="black"/>
<path d="M33.2734 21.1701L33.801 21.6977L34.3285 21.1701L33.801 20.6426L33.2734 21.1701Z" fill="black"/>
<path d="M34.3359 21.1701L34.8635 21.6977L35.391 21.1701L34.8635 20.6426L34.3359 21.1701Z" fill="black"/>
<path d="M36.4375 21.1701L36.965 21.6977L37.4926 21.1701L36.965 20.6426L36.4375 21.1701Z" fill="black"/>
<path d="M13.2422 22.217L13.7697 22.7445L14.2973 22.217L13.7697 21.6895L13.2422 22.217Z" fill="black"/>
<path d="M14.2852 22.217L14.8127 22.7445L15.3402 22.217L14.8127 21.6895L14.2852 22.217Z" fill="black"/>
<path d="M16.3984 22.217L16.926 22.7445L17.4535 22.217L16.926 21.6895L16.3984 22.217Z" fill="black"/>
<path d="M19.5664 22.217L20.0939 22.7445L20.6215 22.217L20.0939 21.6895L19.5664 22.217Z" fill="black"/>
<path d="M26.9414 22.217L27.4689 22.7445L27.9965 22.217L27.4689 21.6895L26.9414 22.217Z" fill="black"/>
<path d="M28.0039 22.217L28.5314 22.7445L29.059 22.217L28.5314 21.6895L28.0039 22.217Z" fill="black"/>
<path d="M30.1133 22.217L30.6408 22.7445L31.1684 22.217L30.6408 21.6895L30.1133 22.217Z" fill="black"/>
<path d="M33.2734 22.217L33.801 22.7445L34.3285 22.217L33.801 21.6895L33.2734 22.217Z" fill="black"/>
<path d="M34.3359 22.217L34.8635 22.7445L35.391 22.217L34.8635 21.6895L34.3359 22.217Z" fill="black"/>
<path d="M35.375 22.217L35.9025 22.7445L36.4301 22.217L35.9025 21.6895L35.375 22.217Z" fill="black"/>
<path d="M36.4375 22.217L36.965 22.7445L37.4926 22.217L36.965 21.6895L36.4375 22.217Z" fill="black"/>
<path d="M38.5508 22.217L39.0783 22.7445L39.6059 22.217L39.0783 21.6895L38.5508 22.217Z" fill="black"/>
<path d="M40.6602 22.217L41.1877 22.7445L41.7152 22.217L41.1877 21.6895L40.6602 22.217Z" fill="black"/>
<path d="M41.7031 22.217L42.2307 22.7445L42.7582 22.217L42.2307 21.6895L41.7031 22.217Z" fill="black"/>
<path d="M12.1797 23.2717L12.7072 23.7992L13.2348 23.2717L12.7072 22.7441L12.1797 23.2717Z" fill="black"/>
<path d="M13.2422 23.2717L13.7697 23.7992L14.2973 23.2717L13.7697 22.7441L13.2422 23.2717Z" fill="black"/>
<path d="M14.2852 23.2717L14.8127 23.7992L15.3402 23.2717L14.8127 22.7441L14.2852 23.2717Z" fill="black"/>
<path d="M15.3516 23.2717L15.8791 23.7992L16.4066 23.2717L15.8791 22.7441L15.3516 23.2717Z" fill="black"/>
<path d="M16.3984 23.2717L16.926 23.7992L17.4535 23.2717L16.926 22.7441L16.3984 23.2717Z" fill="black"/>
<path d="M18.5117 23.2717L19.0393 23.7992L19.5668 23.2717L19.0393 22.7441L18.5117 23.2717Z" fill="black"/>
<path d="M19.5664 23.2717L20.0939 23.7992L20.6215 23.2717L20.0939 22.7441L19.5664 23.2717Z" fill="black"/>
<path d="M22.7344 23.2717L23.2619 23.7992L23.7895 23.2717L23.2619 22.7441L22.7344 23.2717Z" fill="black"/>
<path d="M24.8359 23.2717L25.3635 23.7992L25.891 23.2717L25.3635 22.7441L24.8359 23.2717Z" fill="black"/>
<path d="M29.0547 23.2717L29.5822 23.7992L30.1098 23.2717L29.5822 22.7441L29.0547 23.2717Z" fill="black"/>
<path d="M30.1133 23.2717L30.6408 23.7992L31.1684 23.2717L30.6408 22.7441L30.1133 23.2717Z" fill="black"/>
<path d="M31.1641 23.2717L31.6916 23.7992L32.2191 23.2717L31.6916 22.7441L31.1641 23.2717Z" fill="black"/>
<path d="M32.2188 23.2717L32.7463 23.7992L33.2738 23.2717L32.7463 22.7441L32.2188 23.2717Z" fill="black"/>
<path d="M33.2734 23.2717L33.801 23.7992L34.3285 23.2717L33.801 22.7441L33.2734 23.2717Z" fill="black"/>
<path d="M34.3359 23.2717L34.8635 23.7992L35.391 23.2717L34.8635 22.7441L34.3359 23.2717Z" fill="black"/>
<path d="M37.4922 23.2717L38.0197 23.7992L38.5473 23.2717L38.0197 22.7441L37.4922 23.2717Z" fill="black"/>
<path d="M38.5508 23.2717L39.0783 23.7992L39.6059 23.2717L39.0783 22.7441L38.5508 23.2717Z" fill="black"/>
<path d="M39.5938 23.2717L40.1213 23.7992L40.6488 23.2717L40.1213 22.7441L39.5938 23.2717Z" fill="black"/>
<path d="M13.2422 24.3303L13.7697 24.8578L14.2973 24.3303L13.7697 23.8027L13.2422 24.3303Z" fill="black"/>
<path d="M14.2852 24.3303L14.8127 24.8578L15.3402 24.3303L14.8127 23.8027L14.2852 24.3303Z" fill="black"/>
<path d="M15.3516 24.3303L15.8791 24.8578L16.4066 24.3303L15.8791 23.8027L15.3516 24.3303Z" fill="black"/>
<path d="M20.6133 24.3303L21.1408 24.8578L21.6684 24.3303L21.1408 23.8027L20.6133 24.3303Z" fill="black"/>
<path d="M21.6758 24.3303L22.2033 24.8578L22.7309 24.3303L22.2033 23.8027L21.6758 24.3303Z" fill="black"/>
<path d="M23.7852 24.3303L24.3127 24.8578L24.8402 24.3303L24.3127 23.8027L23.7852 24.3303Z" fill="black"/>
<path d="M24.8359 24.3303L25.3635 24.8578L25.891 24.3303L25.3635 23.8027L24.8359 24.3303Z" fill="black"/>
<path d="M26.9414 24.3303L27.4689 24.8578L27.9965 24.3303L27.4689 23.8027L26.9414 24.3303Z" fill="black"/>
<path d="M28.0039 24.3303L28.5314 24.8578L29.059 24.3303L28.5314 23.8027L28.0039 24.3303Z" fill="black"/>
<path d="M31.1641 24.3303L31.6916 24.8578L32.2191 24.3303L31.6916 23.8027L31.1641 24.3303Z" fill="black"/>
<path d="M33.2734 24.3303L33.801 24.8578L34.3285 24.3303L33.801 23.8027L33.2734 24.3303Z" fill="black"/>
<path d="M34.3359 24.3303L34.8635 24.8578L35.391 24.3303L34.8635 23.8027L34.3359 24.3303Z" fill="black"/>
<path d="M35.375 24.3303L35.9025 24.8578L36.4301 24.3303L35.9025 23.8027L35.375 24.3303Z" fill="black"/>
<path d="M39.5938 24.3303L40.1213 24.8578L40.6488 24.3303L40.1213 23.8027L39.5938 24.3303Z" fill="black"/>
<path d="M40.6602 24.3303L41.1877 24.8578L41.7152 24.3303L41.1877 23.8027L40.6602 24.3303Z" fill="black"/>
<path d="M41.7031 24.3303L42.2307 24.8578L42.7582 24.3303L42.2307 23.8027L41.7031 24.3303Z" fill="black"/>
<path d="M13.2422 25.3791L13.7697 25.9066L14.2973 25.3791L13.7697 24.8516L13.2422 25.3791Z" fill="black"/>
<path d="M15.3516 25.3791L15.8791 25.9066L16.4066 25.3791L15.8791 24.8516L15.3516 25.3791Z" fill="black"/>
<path d="M18.5117 25.3791L19.0393 25.9066L19.5668 25.3791L19.0393 24.8516L18.5117 25.3791Z" fill="black"/>
<path d="M19.5664 25.3791L20.0939 25.9066L20.6215 25.3791L20.0939 24.8516L19.5664 25.3791Z" fill="black"/>
<path d="M21.6758 25.3791L22.2033 25.9066L22.7309 25.3791L22.2033 24.8516L21.6758 25.3791Z" fill="black"/>
<path d="M22.7344 25.3791L23.2619 25.9066L23.7895 25.3791L23.2619 24.8516L22.7344 25.3791Z" fill="black"/>
<path d="M23.7852 25.3791L24.3127 25.9066L24.8402 25.3791L24.3127 24.8516L23.7852 25.3791Z" fill="black"/>
<path d="M29.0547 25.3791L29.5822 25.9066L30.1098 25.3791L29.5822 24.8516L29.0547 25.3791Z" fill="black"/>
<path d="M30.1133 25.3791L30.6408 25.9066L31.1684 25.3791L30.6408 24.8516L30.1133 25.3791Z" fill="black"/>
<path d="M35.375 25.3791L35.9025 25.9066L36.4301 25.3791L35.9025 24.8516L35.375 25.3791Z" fill="black"/>
<path d="M38.5508 25.3791L39.0783 25.9066L39.6059 25.3791L39.0783 24.8516L38.5508 25.3791Z" fill="black"/>
<path d="M39.5938 25.3791L40.1213 25.9066L40.6488 25.3791L40.1213 24.8516L39.5938 25.3791Z" fill="black"/>
<path d="M40.6602 25.3791L41.1877 25.9066L41.7152 25.3791L41.1877 24.8516L40.6602 25.3791Z" fill="black"/>
<path d="M41.7031 25.3791L42.2307 25.9066L42.7582 25.3791L42.2307 24.8516L41.7031 25.3791Z" fill="black"/>
<path d="M12.1797 26.4377L12.7072 26.9652L13.2348 26.4377L12.7072 25.9102L12.1797 26.4377Z" fill="black"/>
<path d="M14.2852 26.4377L14.8127 26.9652L15.3402 26.4377L14.8127 25.9102L14.2852 26.4377Z" fill="black"/>
<path d="M15.3516 26.4377L15.8791 26.9652L16.4066 26.4377L15.8791 25.9102L15.3516 26.4377Z" fill="black"/>
<path d="M20.6133 26.4377L21.1408 26.9652L21.6684 26.4377L21.1408 25.9102L20.6133 26.4377Z" fill="black"/>
<path d="M24.8359 26.4377L25.3635 26.9652L25.891 26.4377L25.3635 25.9102L24.8359 26.4377Z" fill="black"/>
<path d="M28.0039 26.4377L28.5314 26.9652L29.059 26.4377L28.5314 25.9102L28.0039 26.4377Z" fill="black"/>
<path d="M30.1133 26.4377L30.6408 26.9652L31.1684 26.4377L30.6408 25.9102L30.1133 26.4377Z" fill="black"/>
<path d="M31.1641 26.4377L31.6916 26.9652L32.2191 26.4377L31.6916 25.9102L31.1641 26.4377Z" fill="black"/>
<path d="M32.2188 26.4377L32.7463 26.9652L33.2738 26.4377L32.7463 25.9102L32.2188 26.4377Z" fill="black"/>
<path d="M33.2734 26.4377L33.801 26.9652L34.3285 26.4377L33.801 25.9102L33.2734 26.4377Z" fill="black"/>
<path d="M34.3359 26.4377L34.8635 26.9652L35.391 26.4377L34.8635 25.9102L34.3359 26.4377Z" fill="black"/>
<path d="M36.4375 26.4377L36.965 26.9652L37.4926 26.4377L36.965 25.9102L36.4375 26.4377Z" fill="black"/>
<path d="M40.6602 26.4377L41.1877 26.9652L41.7152 26.4377L41.1877 25.9102L40.6602 26.4377Z" fill="black"/>
<path d="M41.7031 26.4377L42.2307 26.9652L42.7582 26.4377L42.2307 25.9102L41.7031 26.4377Z" fill="black"/>
<path d="M12.1797 27.4885L12.7072 28.016L13.2348 27.4885L12.7072 26.9609L12.1797 27.4885Z" fill="black"/>
<path d="M13.2422 27.4885L13.7697 28.016L14.2973 27.4885L13.7697 26.9609L13.2422 27.4885Z" fill="black"/>
<path d="M15.3516 27.4885L15.8791 28.016L16.4066 27.4885L15.8791 26.9609L15.3516 27.4885Z" fill="black"/>
<path d="M16.3984 27.4885L16.926 28.016L17.4535 27.4885L16.926 26.9609L16.3984 27.4885Z" fill="black"/>
<path d="M17.4531 27.4885L17.9807 28.016L18.5082 27.4885L17.9807 26.9609L17.4531 27.4885Z" fill="black"/>
<path d="M18.5117 27.4885L19.0393 28.016L19.5668 27.4885L19.0393 26.9609L18.5117 27.4885Z" fill="black"/>
<path d="M19.5664 27.4885L20.0939 28.016L20.6215 27.4885L20.0939 26.9609L19.5664 27.4885Z" fill="black"/>
<path d="M23.7852 27.4885L24.3127 28.016L24.8402 27.4885L24.3127 26.9609L23.7852 27.4885Z" fill="black"/>
<path d="M24.8359 27.4885L25.3635 28.016L25.891 27.4885L25.3635 26.9609L24.8359 27.4885Z" fill="black"/>
<path d="M28.0039 27.4885L28.5314 28.016L29.059 27.4885L28.5314 26.9609L28.0039 27.4885Z" fill="black"/>
<path d="M29.0547 27.4885L29.5822 28.016L30.1098 27.4885L29.5822 26.9609L29.0547 27.4885Z" fill="black"/>
<path d="M30.1133 27.4885L30.6408 28.016L31.1684 27.4885L30.6408 26.9609L30.1133 27.4885Z" fill="black"/>
<path d="M33.2734 27.4885L33.801 28.016L34.3285 27.4885L33.801 26.9609L33.2734 27.4885Z" fill="black"/>
<path d="M35.375 27.4885L35.9025 28.016L36.4301 27.4885L35.9025 26.9609L35.375 27.4885Z" fill="black"/>
<path d="M36.4375 27.4885L36.965 28.016L37.4926 27.4885L36.965 26.9609L36.4375 27.4885Z" fill="black"/>
<path d="M38.5508 27.4885L39.0783 28.016L39.6059 27.4885L39.0783 26.9609L38.5508 27.4885Z" fill="black"/>
<path d="M39.5938 27.4885L40.1213 28.016L40.6488 27.4885L40.1213 26.9609L39.5938 27.4885Z" fill="black"/>
<path d="M40.6602 27.4885L41.1877 28.016L41.7152 27.4885L41.1877 26.9609L40.6602 27.4885Z" fill="black"/>
<path d="M41.7031 27.4885L42.2307 28.016L42.7582 27.4885L42.2307 26.9609L41.7031 27.4885Z" fill="black"/>
<path d="M14.2852 28.5451L14.8127 29.0727L15.3402 28.5451L14.8127 28.0176L14.2852 28.5451Z" fill="black"/>
<path d="M15.3516 28.5451L15.8791 29.0727L16.4066 28.5451L15.8791 28.0176L15.3516 28.5451Z" fill="black"/>
<path d="M16.3984 28.5451L16.926 29.0727L17.4535 28.5451L16.926 28.0176L16.3984 28.5451Z" fill="black"/>
<path d="M19.5664 28.5451L20.0939 29.0727L20.6215 28.5451L20.0939 28.0176L19.5664 28.5451Z" fill="black"/>
<path d="M24.8359 28.5451L25.3635 29.0727L25.891 28.5451L25.3635 28.0176L24.8359 28.5451Z" fill="black"/>
<path d="M25.8906 28.5451L26.4182 29.0727L26.9457 28.5451L26.4182 28.0176L25.8906 28.5451Z" fill="black"/>
<path d="M26.9414 28.5451L27.4689 29.0727L27.9965 28.5451L27.4689 28.0176L26.9414 28.5451Z" fill="black"/>
<path d="M29.0547 28.5451L29.5822 29.0727L30.1098 28.5451L29.5822 28.0176L29.0547 28.5451Z" fill="black"/>
<path d="M30.1133 28.5451L30.6408 29.0727L31.1684 28.5451L30.6408 28.0176L30.1133 28.5451Z" fill="black"/>
<path d="M31.1641 28.5451L31.6916 29.0727L32.2191 28.5451L31.6916 28.0176L31.1641 28.5451Z" fill="black"/>
<path d="M32.2188 28.5451L32.7463 29.0727L33.2738 28.5451L32.7463 28.0176L32.2188 28.5451Z" fill="black"/>
<path d="M33.2734 28.5451L33.801 29.0727L34.3285 28.5451L33.801 28.0176L33.2734 28.5451Z" fill="black"/>
<path d="M34.3359 28.5451L34.8635 29.0727L35.391 28.5451L34.8635 28.0176L34.3359 28.5451Z" fill="black"/>
<path d="M36.4375 28.5451L36.965 29.0727L37.4926 28.5451L36.965 28.0176L36.4375 28.5451Z" fill="black"/>
<path d="M40.6602 28.5451L41.1877 29.0727L41.7152 28.5451L41.1877 28.0176L40.6602 28.5451Z" fill="black"/>
<path d="M12.1797 29.5998L12.7072 30.1274L13.2348 29.5998L12.7072 29.0723L12.1797 29.5998Z" fill="black"/>
<path d="M13.2422 29.5998L13.7697 30.1274L14.2973 29.5998L13.7697 29.0723L13.2422 29.5998Z" fill="black"/>
<path d="M14.2852 29.5998L14.8127 30.1274L15.3402 29.5998L14.8127 29.0723L14.2852 29.5998Z" fill="black"/>
<path d="M18.5117 29.5998L19.0393 30.1274L19.5668 29.5998L19.0393 29.0723L18.5117 29.5998Z" fill="black"/>
<path d="M21.6758 29.5998L22.2033 30.1274L22.7309 29.5998L22.2033 29.0723L21.6758 29.5998Z" fill="black"/>
<path d="M22.7344 29.5998L23.2619 30.1274L23.7895 29.5998L23.2619 29.0723L22.7344 29.5998Z" fill="black"/>
<path d="M23.7852 29.5998L24.3127 30.1274L24.8402 29.5998L24.3127 29.0723L23.7852 29.5998Z" fill="black"/>
<path d="M25.8906 29.5998L26.4182 30.1274L26.9457 29.5998L26.4182 29.0723L25.8906 29.5998Z" fill="black"/>
<path d="M26.9414 29.5998L27.4689 30.1274L27.9965 29.5998L27.4689 29.0723L26.9414 29.5998Z" fill="black"/>
<path d="M28.0039 29.5998L28.5314 30.1274L29.059 29.5998L28.5314 29.0723L28.0039 29.5998Z" fill="black"/>
<path d="M29.0547 29.5998L29.5822 30.1274L30.1098 29.5998L29.5822 29.0723L29.0547 29.5998Z" fill="black"/>
<path d="M30.1133 29.5998L30.6408 30.1274L31.1684 29.5998L30.6408 29.0723L30.1133 29.5998Z" fill="black"/>
<path d="M32.2188 29.5998L32.7463 30.1274L33.2738 29.5998L32.7463 29.0723L32.2188 29.5998Z" fill="black"/>
<path d="M33.2734 29.5998L33.801 30.1274L34.3285 29.5998L33.801 29.0723L33.2734 29.5998Z" fill="black"/>
<path d="M34.3359 29.5998L34.8635 30.1274L35.391 29.5998L34.8635 29.0723L34.3359 29.5998Z" fill="black"/>
<path d="M36.4375 29.5998L36.965 30.1274L37.4926 29.5998L36.965 29.0723L36.4375 29.5998Z" fill="black"/>
<path d="M38.5508 29.5998L39.0783 30.1274L39.6059 29.5998L39.0783 29.0723L38.5508 29.5998Z" fill="black"/>
<path d="M40.6602 29.5998L41.1877 30.1274L41.7152 29.5998L41.1877 29.0723L40.6602 29.5998Z" fill="black"/>
<path d="M14.2852 30.6545L14.8127 31.182L15.3402 30.6545L14.8127 30.127L14.2852 30.6545Z" fill="black"/>
<path d="M15.3516 30.6545L15.8791 31.182L16.4066 30.6545L15.8791 30.127L15.3516 30.6545Z" fill="black"/>
<path d="M16.3984 30.6545L16.926 31.182L17.4535 30.6545L16.926 30.127L16.3984 30.6545Z" fill="black"/>
<path d="M17.4531 30.6545L17.9807 31.182L18.5082 30.6545L17.9807 30.127L17.4531 30.6545Z" fill="black"/>
<path d="M19.5664 30.6545L20.0939 31.182L20.6215 30.6545L20.0939 30.127L19.5664 30.6545Z" fill="black"/>
<path d="M20.6133 30.6545L21.1408 31.182L21.6684 30.6545L21.1408 30.127L20.6133 30.6545Z" fill="black"/>
<path d="M22.7344 30.6545L23.2619 31.182L23.7895 30.6545L23.2619 30.127L22.7344 30.6545Z" fill="black"/>
<path d="M23.7852 30.6545L24.3127 31.182L24.8402 30.6545L24.3127 30.127L23.7852 30.6545Z" fill="black"/>
<path d="M28.0039 30.6545L28.5314 31.182L29.059 30.6545L28.5314 30.127L28.0039 30.6545Z" fill="black"/>
<path d="M30.1133 30.6545L30.6408 31.182L31.1684 30.6545L30.6408 30.127L30.1133 30.6545Z" fill="black"/>
<path d="M34.3359 30.6545L34.8635 31.182L35.391 30.6545L34.8635 30.127L34.3359 30.6545Z" fill="black"/>
<path d="M36.4375 30.6545L36.965 31.182L37.4926 30.6545L36.965 30.127L36.4375 30.6545Z" fill="black"/>
<path d="M38.5508 30.6545L39.0783 31.182L39.6059 30.6545L39.0783 30.127L38.5508 30.6545Z" fill="black"/>
<path d="M39.5938 30.6545L40.1213 31.182L40.6488 30.6545L40.1213 30.127L39.5938 30.6545Z" fill="black"/>
<path d="M40.6602 30.6545L41.1877 31.182L41.7152 30.6545L41.1877 30.127L40.6602 30.6545Z" fill="black"/>
<path d="M12.1797 31.7072L12.7072 32.2348L13.2348 31.7072L12.7072 31.1797L12.1797 31.7072Z" fill="black"/>
<path d="M15.3516 31.7072L15.8791 32.2348L16.4066 31.7072L15.8791 31.1797L15.3516 31.7072Z" fill="black"/>
<path d="M16.3984 31.7072L16.926 32.2348L17.4535 31.7072L16.926 31.1797L16.3984 31.7072Z" fill="black"/>
<path d="M17.4531 31.7072L17.9807 32.2348L18.5082 31.7072L17.9807 31.1797L17.4531 31.7072Z" fill="black"/>
<path d="M18.5117 31.7072L19.0393 32.2348L19.5668 31.7072L19.0393 31.1797L18.5117 31.7072Z" fill="black"/>
<path d="M21.6758 31.7072L22.2033 32.2348L22.7309 31.7072L22.2033 31.1797L21.6758 31.7072Z" fill="black"/>
<path d="M23.7852 31.7072L24.3127 32.2348L24.8402 31.7072L24.3127 31.1797L23.7852 31.7072Z" fill="black"/>
<path d="M24.8359 31.7072L25.3635 32.2348L25.891 31.7072L25.3635 31.1797L24.8359 31.7072Z" fill="black"/>
<path d="M25.8906 31.7072L26.4182 32.2348L26.9457 31.7072L26.4182 31.1797L25.8906 31.7072Z" fill="black"/>
<path d="M33.2734 31.7072L33.801 32.2348L34.3285 31.7072L33.801 31.1797L33.2734 31.7072Z" fill="black"/>
<path d="M35.375 31.7072L35.9025 32.2348L36.4301 31.7072L35.9025 31.1797L35.375 31.7072Z" fill="black"/>
<path d="M36.4375 31.7072L36.965 32.2348L37.4926 31.7072L36.965 31.1797L36.4375 31.7072Z" fill="black"/>
<path d="M37.4922 31.7072L38.0197 32.2348L38.5473 31.7072L38.0197 31.1797L37.4922 31.7072Z" fill="black"/>
<path d="M38.5508 31.7072L39.0783 32.2348L39.6059 31.7072L39.0783 31.1797L38.5508 31.7072Z" fill="black"/>
<path d="M40.6602 31.7072L41.1877 32.2348L41.7152 31.7072L41.1877 31.1797L40.6602 31.7072Z" fill="black"/>
<path d="M41.7031 31.7072L42.2307 32.2348L42.7582 31.7072L42.2307 31.1797L41.7031 31.7072Z" fill="black"/>
<path d="M14.2852 32.7658L14.8127 33.2934L15.3402 32.7658L14.8127 32.2383L14.2852 32.7658Z" fill="black"/>
<path d="M15.3516 32.7658L15.8791 33.2934L16.4066 32.7658L15.8791 32.2383L15.3516 32.7658Z" fill="black"/>
<path d="M17.4531 32.7658L17.9807 33.2934L18.5082 32.7658L17.9807 32.2383L17.4531 32.7658Z" fill="black"/>
<path d="M21.6758 32.7658L22.2033 33.2934L22.7309 32.7658L22.2033 32.2383L21.6758 32.7658Z" fill="black"/>
<path d="M25.8906 32.7658L26.4182 33.2934L26.9457 32.7658L26.4182 32.2383L25.8906 32.7658Z" fill="black"/>
<path d="M28.0039 32.7658L28.5314 33.2934L29.059 32.7658L28.5314 32.2383L28.0039 32.7658Z" fill="black"/>
<path d="M29.0547 32.7658L29.5822 33.2934L30.1098 32.7658L29.5822 32.2383L29.0547 32.7658Z" fill="black"/>
<path d="M30.1133 32.7658L30.6408 33.2934L31.1684 32.7658L30.6408 32.2383L30.1133 32.7658Z" fill="black"/>
<path d="M31.1641 32.7658L31.6916 33.2934L32.2191 32.7658L31.6916 32.2383L31.1641 32.7658Z" fill="black"/>
<path d="M32.2188 32.7658L32.7463 33.2934L33.2738 32.7658L32.7463 32.2383L32.2188 32.7658Z" fill="black"/>
<path d="M33.2734 32.7658L33.801 33.2934L34.3285 32.7658L33.801 32.2383L33.2734 32.7658Z" fill="black"/>
<path d="M38.5508 32.7658L39.0783 33.2934L39.6059 32.7658L39.0783 32.2383L38.5508 32.7658Z" fill="black"/>
<path d="M40.6602 32.7658L41.1877 33.2934L41.7152 32.7658L41.1877 32.2383L40.6602 32.7658Z" fill="black"/>
<path d="M41.7031 32.7658L42.2307 33.2934L42.7582 32.7658L42.2307 32.2383L41.7031 32.7658Z" fill="black"/>
<path d="M12.1797 33.8147L12.7072 34.3422L13.2348 33.8147L12.7072 33.2871L12.1797 33.8147Z" fill="black"/>
<path d="M14.2852 33.8147L14.8127 34.3422L15.3402 33.8147L14.8127 33.2871L14.2852 33.8147Z" fill="black"/>
<path d="M15.3516 33.8147L15.8791 34.3422L16.4066 33.8147L15.8791 33.2871L15.3516 33.8147Z" fill="black"/>
<path d="M16.3984 33.8147L16.926 34.3422L17.4535 33.8147L16.926 33.2871L16.3984 33.8147Z" fill="black"/>
<path d="M17.4531 33.8147L17.9807 34.3422L18.5082 33.8147L17.9807 33.2871L17.4531 33.8147Z" fill="black"/>
<path d="M18.5117 33.8147L19.0393 34.3422L19.5668 33.8147L19.0393 33.2871L18.5117 33.8147Z" fill="black"/>
<path d="M20.6133 33.8147L21.1408 34.3422L21.6684 33.8147L21.1408 33.2871L20.6133 33.8147Z" fill="black"/>
<path d="M22.7344 33.8147L23.2619 34.3422L23.7895 33.8147L23.2619 33.2871L22.7344 33.8147Z" fill="black"/>
<path d="M24.8359 33.8147L25.3635 34.3422L25.891 33.8147L25.3635 33.2871L24.8359 33.8147Z" fill="black"/>
<path d="M26.9414 33.8147L27.4689 34.3422L27.9965 33.8147L27.4689 33.2871L26.9414 33.8147Z" fill="black"/>
<path d="M29.0547 33.8147L29.5822 34.3422L30.1098 33.8147L29.5822 33.2871L29.0547 33.8147Z" fill="black"/>
<path d="M33.2734 33.8147L33.801 34.3422L34.3285 33.8147L33.801 33.2871L33.2734 33.8147Z" fill="black"/>
<path d="M34.3359 33.8147L34.8635 34.3422L35.391 33.8147L34.8635 33.2871L34.3359 33.8147Z" fill="black"/>
<path d="M35.375 33.8147L35.9025 34.3422L36.4301 33.8147L35.9025 33.2871L35.375 33.8147Z" fill="black"/>
<path d="M36.4375 33.8147L36.965 34.3422L37.4926 33.8147L36.965 33.2871L36.4375 33.8147Z" fill="black"/>
<path d="M37.4922 33.8147L38.0197 34.3422L38.5473 33.8147L38.0197 33.2871L37.4922 33.8147Z" fill="black"/>
<path d="M39.5938 33.8147L40.1213 34.3422L40.6488 33.8147L40.1213 33.2871L39.5938 33.8147Z" fill="black"/>
<path d="M41.7031 33.8147L42.2307 34.3422L42.7582 33.8147L42.2307 33.2871L41.7031 33.8147Z" fill="black"/>
<path d="M20.6133 34.8674L21.1408 35.3949L21.6684 34.8674L21.1408 34.3398L20.6133 34.8674Z" fill="black"/>
<path d="M23.7852 34.8674L24.3127 35.3949L24.8402 34.8674L24.3127 34.3398L23.7852 34.8674Z" fill="black"/>
<path d="M25.8906 34.8674L26.4182 35.3949L26.9457 34.8674L26.4182 34.3398L25.8906 34.8674Z" fill="black"/>
<path d="M28.0039 34.8674L28.5314 35.3949L29.059 34.8674L28.5314 34.3398L28.0039 34.8674Z" fill="black"/>
<path d="M29.0547 34.8674L29.5822 35.3949L30.1098 34.8674L29.5822 34.3398L29.0547 34.8674Z" fill="black"/>
<path d="M30.1133 34.8674L30.6408 35.3949L31.1684 34.8674L30.6408 34.3398L30.1133 34.8674Z" fill="black"/>
<path d="M33.2734 34.8674L33.801 35.3949L34.3285 34.8674L33.801 34.3398L33.2734 34.8674Z" fill="black"/>
<path d="M37.4922 34.8674L38.0197 35.3949L38.5473 34.8674L38.0197 34.3398L37.4922 34.8674Z" fill="black"/>
<path d="M38.5508 34.8674L39.0783 35.3949L39.6059 34.8674L39.0783 34.3398L38.5508 34.8674Z" fill="black"/>
<path d="M21.6758 35.926L22.2033 36.4535L22.7309 35.926L22.2033 35.3984L21.6758 35.926Z" fill="black"/>
<path d="M22.7344 35.926L23.2619 36.4535L23.7895 35.926L23.2619 35.3984L22.7344 35.926Z" fill="black"/>
<path d="M23.7852 35.926L24.3127 36.4535L24.8402 35.926L24.3127 35.3984L23.7852 35.926Z" fill="black"/>
<path d="M25.8906 35.926L26.4182 36.4535L26.9457 35.926L26.4182 35.3984L25.8906 35.926Z" fill="black"/>
<path d="M26.9414 35.926L27.4689 36.4535L27.9965 35.926L27.4689 35.3984L26.9414 35.926Z" fill="black"/>
<path d="M28.0039 35.926L28.5314 36.4535L29.059 35.926L28.5314 35.3984L28.0039 35.926Z" fill="black"/>
<path d="M33.2734 35.926L33.801 36.4535L34.3285 35.926L33.801 35.3984L33.2734 35.926Z" fill="black"/>
<path d="M35.375 35.926L35.9025 36.4535L36.4301 35.926L35.9025 35.3984L35.375 35.926Z" fill="black"/>
<path d="M37.4922 35.926L38.0197 36.4535L38.5473 35.926L38.0197 35.3984L37.4922 35.926Z" fill="black"/>
<path d="M39.5938 35.926L40.1213 36.4535L40.6488 35.926L40.1213 35.3984L39.5938 35.926Z" fill="black"/>
<path d="M40.6602 35.926L41.1877 36.4535L41.7152 35.926L41.1877 35.3984L40.6602 35.926Z" fill="black"/>
<path d="M20.6133 36.9768L21.1408 37.5043L21.6684 36.9768L21.1408 36.4492L20.6133 36.9768Z" fill="black"/>
<path d="M21.6758 36.9768L22.2033 37.5043L22.7309 36.9768L22.2033 36.4492L21.6758 36.9768Z" fill="black"/>
<path d="M22.7344 36.9768L23.2619 37.5043L23.7895 36.9768L23.2619 36.4492L22.7344 36.9768Z" fill="black"/>
<path d="M23.7852 36.9768L24.3127 37.5043L24.8402 36.9768L24.3127 36.4492L23.7852 36.9768Z" fill="black"/>
<path d="M25.8906 36.9768L26.4182 37.5043L26.9457 36.9768L26.4182 36.4492L25.8906 36.9768Z" fill="black"/>
<path d="M29.0547 36.9768L29.5822 37.5043L30.1098 36.9768L29.5822 36.4492L29.0547 36.9768Z" fill="black"/>
<path d="M31.1641 36.9768L31.6916 37.5043L32.2191 36.9768L31.6916 36.4492L31.1641 36.9768Z" fill="black"/>
<path d="M33.2734 36.9768L33.801 37.5043L34.3285 36.9768L33.801 36.4492L33.2734 36.9768Z" fill="black"/>
<path d="M37.4922 36.9768L38.0197 37.5043L38.5473 36.9768L38.0197 36.4492L37.4922 36.9768Z" fill="black"/>
<path d="M39.5938 36.9768L40.1213 37.5043L40.6488 36.9768L40.1213 36.4492L39.5938 36.9768Z" fill="black"/>
<path d="M40.6602 36.9768L41.1877 37.5043L41.7152 36.9768L41.1877 36.4492L40.6602 36.9768Z" fill="black"/>
<path d="M41.7031 36.9768L42.2307 37.5043L42.7582 36.9768L42.2307 36.4492L41.7031 36.9768Z" fill="black"/>
<path d="M21.6758 38.0432L22.2033 38.5707L22.7309 38.0432L22.2033 37.5156L21.6758 38.0432Z" fill="black"/>
<path d="M22.7344 38.0432L23.2619 38.5707L23.7895 38.0432L23.2619 37.5156L22.7344 38.0432Z" fill="black"/>
<path d="M23.7852 38.0432L24.3127 38.5707L24.8402 38.0432L24.3127 37.5156L23.7852 38.0432Z" fill="black"/>
<path d="M24.8359 38.0432L25.3635 38.5707L25.891 38.0432L25.3635 37.5156L24.8359 38.0432Z" fill="black"/>
<path d="M26.9414 38.0432L27.4689 38.5707L27.9965 38.0432L27.4689 37.5156L26.9414 38.0432Z" fill="black"/>
<path d="M28.0039 38.0432L28.5314 38.5707L29.059 38.0432L28.5314 37.5156L28.0039 38.0432Z" fill="black"/>
<path d="M29.0547 38.0432L29.5822 38.5707L30.1098 38.0432L29.5822 37.5156L29.0547 38.0432Z" fill="black"/>
<path d="M30.1133 38.0432L30.6408 38.5707L31.1684 38.0432L30.6408 37.5156L30.1133 38.0432Z" fill="black"/>
<path d="M33.2734 38.0432L33.801 38.5707L34.3285 38.0432L33.801 37.5156L33.2734 38.0432Z" fill="black"/>
<path d="M34.3359 38.0432L34.8635 38.5707L35.391 38.0432L34.8635 37.5156L34.3359 38.0432Z" fill="black"/>
<path d="M35.375 38.0432L35.9025 38.5707L36.4301 38.0432L35.9025 37.5156L35.375 38.0432Z" fill="black"/>
<path d="M36.4375 38.0432L36.965 38.5707L37.4926 38.0432L36.965 37.5156L36.4375 38.0432Z" fill="black"/>
<path d="M37.4922 38.0432L38.0197 38.5707L38.5473 38.0432L38.0197 37.5156L37.4922 38.0432Z" fill="black"/>
<path d="M40.6602 38.0432L41.1877 38.5707L41.7152 38.0432L41.1877 37.5156L40.6602 38.0432Z" fill="black"/>
<path d="M20.6133 39.092L21.1408 39.6195L21.6684 39.092L21.1408 38.5645L20.6133 39.092Z" fill="black"/>
<path d="M21.6758 39.092L22.2033 39.6195L22.7309 39.092L22.2033 38.5645L21.6758 39.092Z" fill="black"/>
<path d="M22.7344 39.092L23.2619 39.6195L23.7895 39.092L23.2619 38.5645L22.7344 39.092Z" fill="black"/>
<path d="M24.8359 39.092L25.3635 39.6195L25.891 39.092L25.3635 38.5645L24.8359 39.092Z" fill="black"/>
<path d="M26.9414 39.092L27.4689 39.6195L27.9965 39.092L27.4689 38.5645L26.9414 39.092Z" fill="black"/>
<path d="M28.0039 39.092L28.5314 39.6195L29.059 39.092L28.5314 38.5645L28.0039 39.092Z" fill="black"/>
<path d="M29.0547 39.092L29.5822 39.6195L30.1098 39.092L29.5822 38.5645L29.0547 39.092Z" fill="black"/>
<path d="M33.2734 39.092L33.801 39.6195L34.3285 39.092L33.801 38.5645L33.2734 39.092Z" fill="black"/>
<path d="M35.375 39.092L35.9025 39.6195L36.4301 39.092L35.9025 38.5645L35.375 39.092Z" fill="black"/>
<path d="M36.4375 39.092L36.965 39.6195L37.4926 39.092L36.965 38.5645L36.4375 39.092Z" fill="black"/>
<path d="M37.4922 39.092L38.0197 39.6195L38.5473 39.092L38.0197 38.5645L37.4922 39.092Z" fill="black"/>
<path d="M38.5508 39.092L39.0783 39.6195L39.6059 39.092L39.0783 38.5645L38.5508 39.092Z" fill="black"/>
<path d="M39.5938 39.092L40.1213 39.6195L40.6488 39.092L40.1213 38.5645L39.5938 39.092Z" fill="black"/>
<path d="M41.7031 39.092L42.2307 39.6195L42.7582 39.092L42.2307 38.5645L41.7031 39.092Z" fill="black"/>
<path d="M23.7852 40.1486L24.3127 40.6762L24.8402 40.1486L24.3127 39.6211L23.7852 40.1486Z" fill="black"/>
<path d="M26.9414 40.1486L27.4689 40.6762L27.9965 40.1486L27.4689 39.6211L26.9414 40.1486Z" fill="black"/>
<path d="M29.0547 40.1486L29.5822 40.6762L30.1098 40.1486L29.5822 39.6211L29.0547 40.1486Z" fill="black"/>
<path d="M32.2188 40.1486L32.7463 40.6762L33.2738 40.1486L32.7463 39.6211L32.2188 40.1486Z" fill="black"/>
<path d="M33.2734 40.1486L33.801 40.6762L34.3285 40.1486L33.801 39.6211L33.2734 40.1486Z" fill="black"/>
<path d="M37.4922 40.1486L38.0197 40.6762L38.5473 40.1486L38.0197 39.6211L37.4922 40.1486Z" fill="black"/>
<path d="M39.5938 40.1486L40.1213 40.6762L40.6488 40.1486L40.1213 39.6211L39.5938 40.1486Z" fill="black"/>
<path d="M41.7031 40.1486L42.2307 40.6762L42.7582 40.1486L42.2307 39.6211L41.7031 40.1486Z" fill="black"/>
<path d="M21.6758 41.1994L22.2033 41.727L22.7309 41.1994L22.2033 40.6719L21.6758 41.1994Z" fill="black"/>
<path d="M22.7344 41.1994L23.2619 41.727L23.7895 41.1994L23.2619 40.6719L22.7344 41.1994Z" fill="black"/>
<path d="M23.7852 41.1994L24.3127 41.727L24.8402 41.1994L24.3127 40.6719L23.7852 41.1994Z" fill="black"/>
<path d="M28.0039 41.1994L28.5314 41.727L29.059 41.1994L28.5314 40.6719L28.0039 41.1994Z" fill="black"/>
<path d="M29.0547 41.1994L29.5822 41.727L30.1098 41.1994L29.5822 40.6719L29.0547 41.1994Z" fill="black"/>
<path d="M30.1133 41.1994L30.6408 41.727L31.1684 41.1994L30.6408 40.6719L30.1133 41.1994Z" fill="black"/>
<path d="M32.2188 41.1994L32.7463 41.727L33.2738 41.1994L32.7463 40.6719L32.2188 41.1994Z" fill="black"/>
<path d="M33.2734 41.1994L33.801 41.727L34.3285 41.1994L33.801 40.6719L33.2734 41.1994Z" fill="black"/>
<path d="M35.375 41.1994L35.9025 41.727L36.4301 41.1994L35.9025 40.6719L35.375 41.1994Z" fill="black"/>
<path d="M36.4375 41.1994L36.965 41.727L37.4926 41.1994L36.965 40.6719L36.4375 41.1994Z" fill="black"/>
<path d="M37.4922 41.1994L38.0197 41.727L38.5473 41.1994L38.0197 40.6719L37.4922 41.1994Z" fill="black"/>
<path d="M40.6602 41.1994L41.1877 41.727L41.7152 41.1994L41.1877 40.6719L40.6602 41.1994Z" fill="black"/>
<path d="M20.6133 42.2522L21.1408 42.7797L21.6684 42.2522L21.1408 41.7246L20.6133 42.2522Z" fill="black"/>
<path d="M21.6758 42.2522L22.2033 42.7797L22.7309 42.2522L22.2033 41.7246L21.6758 42.2522Z" fill="black"/>
<path d="M25.8906 42.2522L26.4182 42.7797L26.9457 42.2522L26.4182 41.7246L25.8906 42.2522Z" fill="black"/>
<path d="M29.0547 42.2522L29.5822 42.7797L30.1098 42.2522L29.5822 41.7246L29.0547 42.2522Z" fill="black"/>
<path d="M30.1133 42.2522L30.6408 42.7797L31.1684 42.2522L30.6408 41.7246L30.1133 42.2522Z" fill="black"/>
<path d="M33.2734 42.2522L33.801 42.7797L34.3285 42.2522L33.801 41.7246L33.2734 42.2522Z" fill="black"/>
<path d="M34.3359 42.2522L34.8635 42.7797L35.391 42.2522L34.8635 41.7246L34.3359 42.2522Z" fill="black"/>
<path d="M35.375 42.2522L35.9025 42.7797L36.4301 42.2522L35.9025 41.7246L35.375 42.2522Z" fill="black"/>
<path d="M36.4375 42.2522L36.965 42.7797L37.4926 42.2522L36.965 41.7246L36.4375 42.2522Z" fill="black"/>
<path d="M38.5508 42.2522L39.0783 42.7797L39.6059 42.2522L39.0783 41.7246L38.5508 42.2522Z" fill="black"/>
<path d="M40.6602 42.2522L41.1877 42.7797L41.7152 42.2522L41.1877 41.7246L40.6602 42.2522Z" fill="black"/>
<path d="M16.7123 19.5821C17.2021 19.5822 17.6918 19.5816 18.1815 19.5818C18.4264 19.5819 18.6712 19.5821 18.9161 19.5826C19.0336 19.583 19.1512 19.5833 19.2687 19.5836C19.3375 19.5837 19.4199 19.5952 19.4875 19.5766C19.5338 19.5638 19.5476 19.5238 19.547 19.4795C19.5455 19.3731 19.5088 19.2636 19.491 19.1589C19.4509 18.9232 19.4253 18.6853 19.4036 18.4471C19.3599 17.9652 19.3198 17.482 19.3042 16.9981C19.2888 16.518 19.304 16.0363 19.3537 15.5587C19.3781 15.3233 19.4124 15.0887 19.4606 14.8568C19.5051 14.6432 19.5577 14.4346 19.5706 14.2159C19.5948 13.8038 19.4989 13.3973 19.2828 13.0448C19.081 12.7157 18.7773 12.4878 18.4166 12.3566C17.9755 12.1965 17.5096 12.2054 17.0474 12.2069C16.5603 12.2084 16.0732 12.2052 15.586 12.2051C15.0989 12.2049 14.6121 12.2076 14.1249 12.221C13.7602 12.2311 13.3935 12.2962 13.0728 12.479C12.7323 12.6731 12.4677 12.9856 12.3415 13.3575C12.197 13.7839 12.2066 14.2627 12.206 14.7078C12.2047 15.6705 12.1744 16.6364 12.2075 17.5988C12.2205 17.971 12.292 18.3478 12.4835 18.6717C12.6863 19.015 13.0068 19.2702 13.3771 19.4125C13.8085 19.5783 14.2667 19.5912 14.7229 19.5833C15.202 19.5751 15.6811 19.5868 16.1604 19.5844C16.3445 19.5836 16.5285 19.5821 16.7123 19.5821C16.2284 19.5821 17.5939 19.5822 16.7123 19.5821ZM16.502 18.5254C16.502 18.5202 15.1833 18.5234 15.0584 18.5221C14.8259 18.5204 14.5903 18.5283 14.3617 18.4775C14.1643 18.4338 13.9754 18.3526 13.8097 18.2364C13.5378 18.0458 13.3599 17.7611 13.3053 17.434C13.2701 17.2229 13.2816 17.0036 13.2797 16.7903C13.2777 16.5446 13.2773 16.2991 13.2782 16.0534C13.2792 15.8077 13.2813 15.5621 13.2847 15.3165C13.2877 15.0834 13.2789 14.8494 13.2886 14.6166C13.3037 14.2519 13.4105 13.8733 13.6786 13.6119C13.7909 13.5025 13.9282 13.4206 14.0786 13.3757C14.276 13.3169 14.4917 13.3235 14.6954 13.3124C15.1826 13.2855 15.6703 13.2656 16.1582 13.2664C16.4021 13.2669 16.646 13.2726 16.8895 13.2852C17.1072 13.2964 17.3352 13.2986 17.5489 13.3442C17.8659 13.4119 18.1489 13.6109 18.3164 13.8891C18.5347 14.2515 18.4953 14.654 18.4252 15.0533C18.3422 15.5259 18.3231 16.0028 18.3238 16.4817C18.3242 16.837 18.3336 17.1897 18.3709 17.5433C18.389 17.7143 18.4109 17.885 18.4333 18.0555C18.4445 18.1408 18.456 18.2262 18.4671 18.3114C18.4737 18.3619 18.4854 18.4225 18.4607 18.4702C18.4122 18.5637 18.2318 18.528 18.1515 18.5271C17.965 18.5253 17.7784 18.5243 17.5918 18.5242C17.2287 18.5237 16.8654 18.5254 16.502 18.5254C16.502 18.5241 17.101 18.5254 16.502 18.5254Z" fill="url(#paint1_linear_2359_24348)"/>
<path d="M38.2447 19.5821C37.7549 19.5822 37.2652 19.5816 36.7755 19.5818C36.5307 19.5819 36.2858 19.5821 36.0409 19.5826C35.9234 19.583 35.8059 19.5833 35.6883 19.5836C35.6195 19.5837 35.5371 19.5952 35.4695 19.5766C35.4232 19.5638 35.4094 19.5238 35.41 19.4795C35.4115 19.3731 35.4483 19.2636 35.4661 19.1589C35.5061 18.9232 35.5318 18.6853 35.5534 18.4471C35.5972 17.9652 35.6373 17.482 35.6528 16.9981C35.6683 16.518 35.6531 16.0363 35.6034 15.5587C35.5789 15.3233 35.5447 15.0887 35.4964 14.8568C35.4519 14.6432 35.3993 14.4346 35.3865 14.2159C35.3623 13.8038 35.4581 13.3973 35.6742 13.0448C35.876 12.7157 36.1797 12.4878 36.5405 12.3566C36.9816 12.1965 37.4475 12.2054 37.9096 12.2069C38.3968 12.2084 38.8838 12.2052 39.3711 12.2051C39.8581 12.2049 40.3449 12.2076 40.8321 12.221C41.1969 12.2311 41.5635 12.2962 41.8842 12.479C42.2248 12.6731 42.4894 12.9856 42.6155 13.3575C42.76 13.7839 42.7504 14.2627 42.7511 14.7078C42.7523 15.6705 42.7827 16.6364 42.7495 17.5988C42.7365 17.971 42.665 18.3478 42.4736 18.6717C42.2707 19.015 41.9502 19.2702 41.5799 19.4125C41.1485 19.5783 40.6903 19.5912 40.2341 19.5833C39.755 19.5751 39.2759 19.5868 38.7966 19.5844C38.6125 19.5836 38.4286 19.5821 38.2447 19.5821C38.7287 19.5821 37.3632 19.5822 38.2447 19.5821ZM38.455 18.5254C38.455 18.5202 39.7737 18.5234 39.8986 18.5221C40.1311 18.5204 40.3667 18.5283 40.5953 18.4775C40.7927 18.4338 40.9816 18.3526 41.1473 18.2364C41.4192 18.0458 41.5971 17.7611 41.6517 17.434C41.687 17.2229 41.6754 17.0036 41.6773 16.7903C41.6793 16.5446 41.6797 16.2991 41.6789 16.0534C41.6778 15.8077 41.6757 15.5621 41.6724 15.3165C41.6693 15.0834 41.6781 14.8494 41.6684 14.6166C41.6533 14.2519 41.5465 13.8733 41.2784 13.6119C41.1662 13.5025 41.0288 13.4206 40.8785 13.3757C40.6811 13.3169 40.4654 13.3235 40.2616 13.3124C39.7744 13.2855 39.2868 13.2656 38.7988 13.2664C38.555 13.2669 38.3111 13.2726 38.0675 13.2852C37.8499 13.2964 37.6218 13.2986 37.4081 13.3442C37.0911 13.4119 36.8081 13.6109 36.6406 13.8891C36.4224 14.2515 36.4617 14.654 36.5318 15.0533C36.6148 15.5259 36.6339 16.0028 36.6333 16.4817C36.6328 16.837 36.6235 17.1897 36.5861 17.5433C36.568 17.7143 36.5462 17.885 36.5237 18.0555C36.5125 18.1408 36.5011 18.2262 36.4899 18.3114C36.4833 18.3619 36.4716 18.4225 36.4963 18.4702C36.5448 18.5637 36.7253 18.528 36.8055 18.5271C36.9921 18.5253 37.1787 18.5243 37.3652 18.5242C37.7283 18.5237 38.0916 18.5254 38.455 18.5254C38.455 18.5241 37.856 18.5254 38.455 18.5254Z" fill="url(#paint2_linear_2359_24348)"/>
<path d="M16.7123 35.4101C17.2021 35.41 17.6918 35.4105 18.1815 35.4104C18.4264 35.4103 18.6712 35.4101 18.9161 35.4096C19.0336 35.4092 19.1512 35.4089 19.2687 35.4086C19.3375 35.4085 19.4199 35.397 19.4875 35.4156C19.5338 35.4284 19.5476 35.4683 19.547 35.5127C19.5455 35.6191 19.5088 35.7286 19.491 35.8333C19.4509 36.069 19.4253 36.3069 19.4036 36.5451C19.3599 37.027 19.3198 37.5101 19.3042 37.9941C19.2888 38.4742 19.304 38.9559 19.3537 39.4335C19.3781 39.6689 19.4124 39.9035 19.4606 40.1354C19.5051 40.3489 19.5577 40.5576 19.5706 40.7763C19.5948 41.1884 19.4989 41.5949 19.2828 41.9474C19.081 42.2765 18.7773 42.5044 18.4166 42.6355C17.9755 42.7957 17.5096 42.7868 17.0474 42.7853C16.5603 42.7838 16.0732 42.7869 15.586 42.7871C15.0989 42.7873 14.6121 42.7846 14.1249 42.7712C13.7602 42.7611 13.3935 42.696 13.0728 42.5131C12.7323 42.3191 12.4677 42.0066 12.3415 41.6347C12.197 41.2082 12.2066 40.7295 12.206 40.2844C12.2047 39.3217 12.1744 38.3558 12.2075 37.3934C12.2205 37.0212 12.292 36.6444 12.4835 36.3205C12.6863 35.9771 13.0068 35.722 13.3771 35.5797C13.8085 35.4139 14.2667 35.4009 14.7229 35.4088C15.202 35.417 15.6811 35.4054 16.1604 35.4078C16.3445 35.4086 16.5285 35.4101 16.7123 35.4101C16.2284 35.4101 17.5939 35.41 16.7123 35.4101ZM16.502 36.4668C16.502 36.472 15.1833 36.4688 15.0584 36.4701C14.8259 36.4718 14.5903 36.4639 14.3617 36.5147C14.1643 36.5584 13.9754 36.6396 13.8097 36.7558C13.5378 36.9464 13.3599 37.2311 13.3053 37.5582C13.2701 37.7693 13.2816 37.9886 13.2797 38.2019C13.2777 38.4476 13.2773 38.6931 13.2782 38.9388C13.2792 39.1845 13.2813 39.4301 13.2847 39.6757C13.2877 39.9088 13.2789 40.1428 13.2886 40.3756C13.3037 40.7403 13.4105 41.1188 13.6786 41.3803C13.7909 41.4897 13.9282 41.5716 14.0786 41.6165C14.276 41.6753 14.4917 41.6687 14.6954 41.6798C15.1826 41.7067 15.6703 41.7266 16.1582 41.7257C16.4021 41.7253 16.646 41.7195 16.8895 41.707C17.1072 41.6958 17.3352 41.6936 17.5489 41.648C17.8659 41.5802 18.1489 41.3813 18.3164 41.1031C18.5347 40.7407 18.4953 40.3382 18.4252 39.9389C18.3422 39.4663 18.3231 38.9893 18.3238 38.5105C18.3242 38.1552 18.3336 37.8025 18.3709 37.4489C18.389 37.2779 18.4109 37.1072 18.4333 36.9367C18.4445 36.8514 18.456 36.766 18.4671 36.6808C18.4737 36.6303 18.4854 36.5697 18.4607 36.522C18.4122 36.4285 18.2318 36.4642 18.1515 36.4651C17.965 36.4669 17.7784 36.4678 17.5918 36.468C17.2287 36.4685 16.8654 36.4668 16.502 36.4668C16.502 36.4681 17.101 36.4668 16.502 36.4668Z" fill="url(#paint3_linear_2359_24348)"/>
<path d="M14.9549 17.4379C15.0941 17.4685 15.2374 17.4636 15.3789 17.4649C15.4548 17.4654 16.2574 17.4636 16.2574 17.4667C16.2578 17.4667 16.2578 17.4667 16.2583 17.4667C16.2672 17.4662 16.336 17.4662 16.3804 17.4667C16.3813 17.4667 16.3822 17.4667 16.3831 17.4667C16.5623 17.4662 16.741 17.4654 16.9202 17.4658C17.0339 17.4658 17.1475 17.4663 17.2607 17.4676C17.3096 17.4681 17.4192 17.4894 17.4488 17.4335C17.4641 17.4046 17.4569 17.3682 17.4529 17.3381C17.4461 17.2866 17.439 17.2356 17.4322 17.1842C17.4187 17.0817 17.4053 16.9792 17.394 16.8763C17.3716 16.6638 17.3657 16.4523 17.3653 16.2384C17.3653 15.951 17.377 15.6645 17.4273 15.3801C17.4699 15.1406 17.4937 14.8984 17.3613 14.6806C17.2593 14.5138 17.0868 14.394 16.8942 14.3532C16.7639 14.3262 16.6251 14.3249 16.4931 14.3178C16.3449 14.3102 16.1962 14.3071 16.048 14.3067C15.7512 14.3062 15.4543 14.3182 15.1584 14.3342C15.0344 14.3408 14.9028 14.3368 14.7829 14.3723C14.6913 14.3994 14.6078 14.4486 14.5395 14.5142C14.3765 14.6713 14.3113 14.8988 14.3023 15.1179C14.2965 15.2581 14.3019 15.3987 14.2996 15.5384C14.2978 15.6862 14.2965 15.8339 14.2961 15.9816C14.2956 16.1288 14.2956 16.2765 14.297 16.4242C14.2978 16.5524 14.2911 16.6842 14.3122 16.811C14.3455 17.0075 14.4541 17.1788 14.6194 17.2932C14.72 17.3629 14.835 17.4117 14.9549 17.4379Z" fill="url(#paint4_linear_2359_24348)"/>
<path d="M39.9982 17.4379C39.859 17.4685 39.7157 17.4636 39.5742 17.4649C39.4983 17.4654 38.6958 17.4636 38.6958 17.4667C38.6953 17.4667 38.6953 17.4667 38.6949 17.4667C38.6859 17.4662 38.6172 17.4662 38.5727 17.4667C38.5718 17.4667 38.5709 17.4667 38.57 17.4667C38.3908 17.4662 38.2121 17.4654 38.0329 17.4658C37.9193 17.4658 37.8056 17.4663 37.6925 17.4676C37.6435 17.4681 37.5339 17.4894 37.5043 17.4335C37.489 17.4046 37.4962 17.3682 37.5002 17.3381C37.507 17.2866 37.5142 17.2356 37.5209 17.1842C37.5344 17.0817 37.5478 16.9792 37.5591 16.8763C37.5815 16.6638 37.5874 16.4523 37.5878 16.2384C37.5878 15.951 37.5761 15.6645 37.5258 15.3801C37.4832 15.1406 37.4594 14.8984 37.5919 14.6806C37.6938 14.5138 37.8663 14.394 38.059 14.3532C38.1892 14.3262 38.328 14.3249 38.46 14.3178C38.6082 14.3102 38.7569 14.3071 38.9051 14.3067C39.2019 14.3062 39.4988 14.3182 39.7948 14.3342C39.9187 14.3408 40.0503 14.3368 40.1702 14.3723C40.2619 14.3994 40.3454 14.4486 40.4136 14.5142C40.5767 14.6713 40.6418 14.8988 40.6508 15.1179C40.6566 15.2581 40.6512 15.3987 40.6535 15.5384C40.6553 15.6862 40.6566 15.8339 40.6571 15.9816C40.6575 16.1288 40.6575 16.2765 40.6562 16.4242C40.6553 16.5524 40.662 16.6842 40.6409 16.811C40.6077 17.0075 40.499 17.1788 40.3337 17.2932C40.2331 17.3629 40.1181 17.4117 39.9982 17.4379Z" fill="url(#paint5_linear_2359_24348)"/>
<path d="M14.9549 37.5446C15.0941 37.514 15.2374 37.5189 15.3789 37.5175C15.4548 37.5171 16.2574 37.5189 16.2574 37.5157C16.2578 37.5157 16.2578 37.5157 16.2583 37.5157C16.2672 37.5162 16.336 37.5162 16.3804 37.5157C16.3813 37.5157 16.3822 37.5157 16.3831 37.5157C16.5623 37.5162 16.741 37.5171 16.9202 37.5166C17.0339 37.5166 17.1475 37.5161 17.2607 37.5148C17.3096 37.5144 17.4192 37.4931 17.4488 37.549C17.4641 37.5778 17.4569 37.6142 17.4529 37.6444C17.4461 37.6958 17.439 37.7468 17.4322 37.7983C17.4187 37.9007 17.4053 38.0032 17.394 38.1061C17.3716 38.3186 17.3657 38.5302 17.3653 38.744C17.3653 39.0314 17.377 39.318 17.4273 39.6023C17.4699 39.8418 17.4937 40.084 17.3613 40.3018C17.2593 40.4686 17.0868 40.5884 16.8942 40.6292C16.7639 40.6562 16.6251 40.6576 16.4931 40.6647C16.3449 40.6722 16.1962 40.6753 16.048 40.6758C15.7512 40.6762 15.4543 40.6642 15.1584 40.6483C15.0344 40.6416 14.9028 40.6456 14.7829 40.6101C14.6913 40.5831 14.6078 40.5338 14.5395 40.4682C14.3765 40.3112 14.3113 40.0836 14.3023 39.8645C14.2965 39.7243 14.3019 39.5837 14.2996 39.444C14.2978 39.2963 14.2965 39.1486 14.2961 39.0008C14.2956 38.8536 14.2956 38.7059 14.297 38.5582C14.2978 38.43 14.2911 38.2982 14.3122 38.1714C14.3455 37.9749 14.4541 37.8036 14.6194 37.6892C14.72 37.6195 14.835 37.5707 14.9549 37.5446Z" fill="url(#paint6_linear_2359_24348)"/>
<rect x="20.5343" y="25.2707" width="13.2152" height="5.88849" rx="1.21717" fill="white" stroke="black" stroke-width="0.217137"/>
<path d="M23.024 29.6476C22.6126 29.6476 22.3527 29.4509 22.3324 29.1456L22.3312 29.1265H22.6782L22.6794 29.1385C22.6925 29.2672 22.832 29.3543 23.0336 29.3543C23.2255 29.3543 23.3579 29.2625 23.3579 29.1301V29.1289C23.3579 29.0156 23.2732 28.9524 23.0598 28.9083L22.8785 28.8714C22.5208 28.7986 22.367 28.6317 22.367 28.3705V28.3693C22.367 28.0498 22.6412 27.8387 23.0228 27.8387C23.4247 27.8387 23.6608 28.051 23.6834 28.3383L23.6846 28.3538H23.346L23.3436 28.3395C23.3233 28.2167 23.2041 28.1309 23.0228 28.1309C22.8451 28.1321 22.7271 28.2131 22.7271 28.3419V28.3431C22.7271 28.4552 22.8106 28.522 23.0133 28.5637L23.1957 28.6007C23.5594 28.6758 23.718 28.8213 23.718 29.0896V29.0908C23.718 29.4318 23.4533 29.6476 23.024 29.6476ZM24.6028 29.6309C24.1926 29.6309 23.9601 29.3817 23.9601 28.9453V28.9429C23.9601 28.5112 24.1914 28.262 24.6028 28.262C24.951 28.262 25.1573 28.4516 25.1883 28.745V28.7485H24.8639L24.8627 28.7462C24.8401 28.6186 24.753 28.5351 24.604 28.5351C24.4168 28.5351 24.3142 28.6806 24.3142 28.9429V28.9453C24.3142 29.2112 24.418 29.3579 24.604 29.3579C24.7471 29.3579 24.8317 29.2899 24.8627 29.1587L24.8651 29.154H25.1871L25.1859 29.1611C25.1501 29.4473 24.945 29.6309 24.6028 29.6309ZM25.8179 29.6238C25.5675 29.6238 25.3898 29.4688 25.3898 29.2303V29.2279C25.3898 28.9918 25.5722 28.8535 25.899 28.8344L26.2162 28.8153V28.7068C26.2162 28.5935 26.1386 28.5291 25.9956 28.5291C25.8703 28.5291 25.7905 28.5733 25.763 28.6508L25.7606 28.6555H25.4387L25.4399 28.6448C25.4673 28.4147 25.6843 28.262 26.0146 28.262C26.3628 28.262 26.5596 28.4266 26.5596 28.7068V29.6035H26.2162V29.4294H26.1947C26.1279 29.551 25.9896 29.6238 25.8179 29.6238ZM25.7296 29.2088C25.7296 29.309 25.8143 29.3698 25.9347 29.3698C26.0957 29.3698 26.2162 29.2637 26.2162 29.1254V29.0288L25.9514 29.0455C25.8024 29.055 25.7296 29.111 25.7296 29.2064V29.2088ZM26.9006 29.6035V28.2906H27.2488V28.4934H27.2703C27.3299 28.3515 27.4599 28.262 27.6471 28.262C27.9392 28.262 28.0966 28.4409 28.0966 28.7545V29.6035H27.7484V28.8332C27.7484 28.6484 27.6721 28.5506 27.5076 28.5506C27.3466 28.5506 27.2488 28.6663 27.2488 28.8439V29.6035H26.9006ZM29.0983 29.6035V27.8828H29.5108L29.9866 29.142H30.0081L30.4827 27.8828H30.8953V29.6035H30.5745V28.4325H30.5506L30.1094 29.6035H29.8841L29.4429 28.4325H29.419V29.6035H29.0983ZM31.8564 29.6309C31.4569 29.6309 31.2148 29.3698 31.2148 28.9489V28.9477C31.2148 28.5303 31.4593 28.262 31.8421 28.262C32.2248 28.262 32.4633 28.5244 32.4633 28.9214V29.03H31.5594C31.563 29.2458 31.6787 29.371 31.8635 29.371C32.0161 29.371 32.1008 29.2899 32.1247 29.2398L32.1282 29.2327H32.4526L32.4502 29.2446C32.4097 29.4091 32.2403 29.6309 31.8564 29.6309ZM31.848 28.5232C31.6966 28.5232 31.5845 28.6257 31.563 28.8117H32.1294C32.108 28.621 31.9995 28.5232 31.848 28.5232Z" fill="#111111"/>
</g>
<defs>
<filter id="filter0_d_2359_24348" x="9.09473" y="7.99316" width="37.0371" height="37.9941" filterUnits="userSpaceOnUse" color-interpolation-filters="sRGB">
<feFlood flood-opacity="0" result="BackgroundImageFix"/>
<feColorMatrix in="SourceAlpha" type="matrix" values="0 0 0 0 0 0 0 0 0 0 0 0 0 0 0 0 0 0 127 0" result="hardAlpha"/>
<feOffset/>
<feGaussianBlur stdDeviation="1.12451"/>
<feComposite in2="hardAlpha" operator="out"/>
<feColorMatrix type="matrix" values="0 0 0 0 0 0 0 0 0 0 0 0 0 0 0 0 0 0 0.25 0"/>
<feBlend mode="normal" in2="BackgroundImageFix" result="effect1_dropShadow_2359_24348"/>
<feBlend mode="normal" in="SourceGraphic" in2="effect1_dropShadow_2359_24348" result="shape"/>
</filter>
<linearGradient id="paint0_linear_2359_24348" x1="2.47688" y1="26.7145" x2="47.6823" y2="46.6519" gradientUnits="userSpaceOnUse">
<stop stop-color="#4172FB"/>
<stop offset="1" stop-color="#E718FF"/>
</linearGradient>
<linearGradient id="paint1_linear_2359_24348" x1="16.8267" y1="20.2807" x2="13.1633" y2="16.6174" gradientUnits="userSpaceOnUse">
<stop stop-color="#2076FD"/>
<stop offset="1" stop-color="#E31AFF"/>
</linearGradient>
<linearGradient id="paint2_linear_2359_24348" x1="39.0739" y1="12.2051" x2="39.0739" y2="19.5872" gradientUnits="userSpaceOnUse">
<stop stop-color="#2076FD"/>
<stop offset="1" stop-color="#E31AFF"/>
</linearGradient>
<linearGradient id="paint3_linear_2359_24348" x1="15.8831" y1="42.7871" x2="15.8831" y2="35.405" gradientUnits="userSpaceOnUse">
<stop stop-color="#2076FD"/>
<stop offset="1" stop-color="#E31AFF"/>
</linearGradient>
<linearGradient id="paint4_linear_2359_24348" x1="14.3256" y1="14.7815" x2="17.3798" y2="16.614" gradientUnits="userSpaceOnUse">
<stop stop-color="#2076FD"/>
<stop offset="1" stop-color="#E31AFF"/>
</linearGradient>
<linearGradient id="paint5_linear_2359_24348" x1="39.0748" y1="14.3066" x2="39.0748" y2="17.472" gradientUnits="userSpaceOnUse">
<stop stop-color="#2076FD"/>
<stop offset="1" stop-color="#E31AFF"/>
</linearGradient>
<linearGradient id="paint6_linear_2359_24348" x1="15.8784" y1="40.6758" x2="15.8784" y2="37.5105" gradientUnits="userSpaceOnUse">
<stop stop-color="#2076FD"/>
<stop offset="1" stop-color="#E31AFF"/>
</linearGradient>
</defs>
</svg>
