<svg width="20" height="20" viewBox="0 0 20 20" fill="none" xmlns="http://www.w3.org/2000/svg">
<path d="M8.58512 5.52029C8.58468 5.52029 8.58427 5.52029 8.58382 5.52029C8.43159 5.52084 8.29641 5.61784 8.24715 5.76191L6.50163 10.8678C6.46434 10.9768 6.48198 11.0973 6.54907 11.191C6.61613 11.2848 6.72431 11.3404 6.8396 11.3404H10.371C10.4867 11.3404 10.5953 11.2844 10.6622 11.19C10.7292 11.0956 10.7463 10.9746 10.7081 10.8654L8.92224 5.75952C8.87209 5.61624 8.73688 5.52029 8.58512 5.52029ZM7.3391 10.6262L8.58895 6.97023L9.86765 10.6262H7.3391Z" fill="white"/>
<path d="M15.4944 16.4675L10.3456 2.41767C10.2941 2.27696 10.1602 2.18344 10.0103 2.18344H7.18111C7.03127 2.18344 6.89735 2.27699 6.84578 2.41767L1.68881 16.4891C1.64868 16.5986 1.66451 16.7208 1.73133 16.8165C1.79815 16.9121 1.90742 16.9691 2.02411 16.9691H4.91353C5.06689 16.9691 5.20313 16.8712 5.25201 16.7258L6.35396 13.4511H10.8197L11.9603 16.7293C12.0102 16.8729 12.1456 16.9691 12.2976 16.9691H15.1669C15.1671 16.969 15.1674 16.9691 15.1676 16.9691C15.3649 16.9691 15.5248 16.8092 15.5248 16.612C15.5249 16.5606 15.514 16.5117 15.4944 16.4675ZM12.5515 16.2548L11.411 12.9766C11.3611 12.8331 11.2257 12.7369 11.0737 12.7369H6.09741C5.94405 12.7369 5.80781 12.8348 5.75889 12.9801L4.65694 16.2549H2.53541L7.43052 2.89766H9.76076L14.6557 16.2548H12.5515Z" fill="white"/>
<path d="M17.0241 4.16666C16.8269 4.16666 16.667 4.30821 16.667 4.48285V16.7088C16.667 16.8834 16.8269 17.025 17.0241 17.025C17.2214 17.025 17.3813 16.8834 17.3813 16.7088V4.48285C17.3813 4.30824 17.2214 4.16666 17.0241 4.16666Z" fill="white"/>
<path d="M17.0241 1.66666C16.8269 1.66666 16.667 1.7738 16.667 1.90598V3.12008C16.667 3.25226 16.8269 3.35941 17.0241 3.35941C17.2214 3.35941 17.3813 3.25226 17.3813 3.12008V1.90598C17.3813 1.7738 17.2214 1.66666 17.0241 1.66666Z" fill="white"/>
</svg>
