<svg width="116" height="98" viewBox="0 0 116 98" fill="none" xmlns="http://www.w3.org/2000/svg">
<g filter="url(#filter0_d_1806_481296)">
<rect x="6.98242" y="6.98145" width="102" height="84" rx="3.49077" fill="white"/>
<g filter="url(#filter1_d_1806_481296)">
<g clip-path="url(#clip0_1806_481296)">
<g clip-path="url(#clip1_1806_481296)">
<path d="M97.7276 15.7085H19.2012V68.1146H97.7276V15.7085Z" fill="white"/>
<path d="M25.0257 19.7119H23.4707V56.105H25.0257V19.7119Z" fill="black"/>
<path d="M26.5763 19.7119H25.7988V56.105H26.5763V19.7119Z" fill="black"/>
<path d="M30.4594 19.7119H28.127V56.105H30.4594V19.7119Z" fill="black"/>
<path d="M32.8068 19.7119H32.0293V56.105H32.8068V19.7119Z" fill="black"/>
<path d="M35.1233 19.7119H33.5684V56.105H35.1233V19.7119Z" fill="black"/>
<path d="M39.0336 19.7119H36.7012V56.105H39.0336V19.7119Z" fill="black"/>
<path d="M41.3615 19.7119H40.584V56.105H41.3615V19.7119Z" fill="black"/>
<path d="M44.4669 19.7119H43.6895V56.105H44.4669V19.7119Z" fill="black"/>
<path d="M46.8069 19.7119H45.252V56.105H46.8069V19.7119Z" fill="black"/>
<path d="M51.4633 19.7119H49.1309V56.105H51.4633V19.7119Z" fill="black"/>
<path d="M54.5802 19.7119H53.8027V56.105H54.5802V19.7119Z" fill="black"/>
<path d="M56.9085 19.7119H55.3535V56.105H56.9085V19.7119Z" fill="black"/>
<path d="M59.2405 19.7119H57.6855V56.105H59.2405V19.7119Z" fill="black"/>
<path d="M63.131 19.7119H62.3535V56.105H63.131V19.7119Z" fill="black"/>
<path d="M64.674 19.7119H63.8965V56.105H64.674V19.7119Z" fill="black"/>
<path d="M67.7913 19.7119H66.2363V56.105H67.7913V19.7119Z" fill="black"/>
<path d="M71.6627 19.7119H68.5527V56.105H71.6627V19.7119Z" fill="black"/>
<path d="M74.0022 19.7119H72.4473V56.105H74.0022V19.7119Z" fill="black"/>
<path d="M75.5685 19.7119H74.791V56.105H75.5685V19.7119Z" fill="black"/>
<path d="M80.233 19.7119H77.123V56.105H80.233V19.7119Z" fill="black"/>
<path d="M82.5607 19.7119H81.7832V56.105H82.5607V19.7119Z" fill="black"/>
<path d="M84.8968 19.7119H83.3418V56.105H84.8968V19.7119Z" fill="black"/>
<path d="M89.5571 19.7119H87.2246V56.105H89.5571V19.7119Z" fill="black"/>
<path d="M91.0958 19.7119H90.3184V56.105H91.0958V19.7119Z" fill="black"/>
<path d="M93.4476 19.7119H91.8926V56.105H93.4476V19.7119Z" fill="black"/>
<path d="M46.6961 61.3533V64.7412H46.2859V61.7834H46.266L45.4389 62.3326V61.9158L46.2859 61.3533H46.6961ZM47.6704 64.7412V64.4434L48.7887 63.2193C48.9199 63.076 49.028 62.9513 49.1129 62.8455C49.1979 62.7385 49.2607 62.6381 49.3015 62.5444C49.3434 62.4495 49.3644 62.3503 49.3644 62.2466C49.3644 62.1275 49.3357 62.0244 49.2784 61.9373C49.2221 61.8502 49.1449 61.7829 49.0468 61.7355C48.9486 61.6881 48.8383 61.6643 48.7159 61.6643C48.5858 61.6643 48.4722 61.6914 48.3751 61.7454C48.2792 61.7983 48.2048 61.8728 48.1518 61.9687C48.1 62.0647 48.0741 62.1772 48.0741 62.3062H47.6837C47.6837 62.1077 47.7294 61.9334 47.821 61.7834C47.9125 61.6335 48.0371 61.5166 48.1948 61.4327C48.3536 61.3489 48.5317 61.307 48.7292 61.307C48.9277 61.307 49.1036 61.3489 49.2569 61.4327C49.4101 61.5166 49.5304 61.6296 49.6175 61.7719C49.7046 61.9141 49.7482 62.0724 49.7482 62.2466C49.7482 62.3712 49.7256 62.4931 49.6803 62.6122C49.6362 62.7302 49.559 62.862 49.4487 63.0076C49.3396 63.152 49.1879 63.3285 48.9938 63.5369L48.2329 64.3508V64.3773H49.8077V64.7412H47.6704ZM51.6356 64.7875C51.4173 64.7875 51.2226 64.75 51.0517 64.675C50.8819 64.6 50.7468 64.4958 50.6464 64.3624C50.5472 64.2278 50.4931 64.0718 50.4843 63.8942H50.9012C50.91 64.0034 50.9475 64.0977 51.0136 64.1771C51.0798 64.2554 51.1664 64.3161 51.2734 64.3591C51.3803 64.4021 51.4989 64.4236 51.629 64.4236C51.7746 64.4236 51.9036 64.3982 52.0161 64.3475C52.1286 64.2968 52.2168 64.2262 52.2808 64.1358C52.3448 64.0453 52.3767 63.9406 52.3767 63.8215C52.3767 63.6968 52.3459 63.5871 52.2841 63.4923C52.2223 63.3963 52.1319 63.3213 52.0128 63.2673C51.8937 63.2133 51.7481 63.1862 51.5761 63.1862H51.3048V62.8223H51.5761C51.7106 62.8223 51.8286 62.798 51.9301 62.7495C52.0327 62.701 52.1126 62.6326 52.17 62.5444C52.2284 62.4562 52.2576 62.3525 52.2576 62.2334C52.2576 62.1187 52.2323 62.0189 52.1815 61.934C52.1308 61.8491 52.0591 61.7829 51.9665 61.7355C51.8749 61.6881 51.7669 61.6643 51.6423 61.6643C51.5254 61.6643 51.4151 61.6858 51.3114 61.7289C51.2088 61.7708 51.125 61.832 51.06 61.9125C50.9949 61.9919 50.9596 62.0878 50.9541 62.2003H50.5571C50.5637 62.0228 50.6172 61.8673 50.7175 61.7338C50.8179 61.5993 50.9491 61.4945 51.1112 61.4195C51.2745 61.3445 51.4537 61.307 51.6489 61.307C51.8584 61.307 52.0382 61.3495 52.1882 61.4344C52.3381 61.5182 52.4534 61.629 52.5339 61.7669C52.6144 61.9048 52.6546 62.0536 52.6546 62.2135C52.6546 62.4043 52.6045 62.567 52.5041 62.7015C52.4049 62.8361 52.2698 62.9293 52.0988 62.9811V63.0076C52.3128 63.0429 52.4798 63.1338 52.6001 63.2805C52.7203 63.4261 52.7804 63.6064 52.7804 63.8215C52.7804 64.0056 52.7302 64.1711 52.6298 64.3177C52.5306 64.4633 52.3949 64.578 52.2229 64.6618C52.0508 64.7456 51.8551 64.7875 51.6356 64.7875ZM53.3775 64.0464V63.709L54.8664 61.3533H55.1112V61.8761H54.9458L53.8209 63.656V63.6825H55.8258V64.0464H53.3775ZM54.9722 64.7412V63.9439V63.7867V61.3533H55.3626V64.7412H54.9722ZM57.5044 64.7875C57.3103 64.7875 57.1355 64.7489 56.98 64.6717C56.8245 64.5945 56.6999 64.4887 56.6062 64.3541C56.5124 64.2196 56.4612 64.0663 56.4523 63.8942H56.8494C56.8648 64.0475 56.9343 64.1744 57.0578 64.2747C57.1824 64.374 57.3313 64.4236 57.5044 64.4236C57.6434 64.4236 57.7669 64.3911 57.875 64.326C57.9842 64.2609 58.0696 64.1716 58.1314 64.058C58.1943 63.9433 58.2257 63.8137 58.2257 63.6693C58.2257 63.5215 58.1931 63.3897 58.1281 63.2739C58.0641 63.157 57.9759 63.0649 57.8634 62.9977C57.7509 62.9304 57.6224 62.8962 57.478 62.8951C57.3743 62.894 57.2679 62.91 57.1587 62.9431C57.0495 62.975 56.9596 63.0164 56.8891 63.0671L56.5053 63.0208L56.7104 61.3533H58.4705V61.7173H57.0545L56.9354 62.7164H56.9552C57.0247 62.6613 57.1118 62.6155 57.2166 62.5791C57.3214 62.5427 57.4305 62.5245 57.5441 62.5245C57.7515 62.5245 57.9362 62.5742 58.0983 62.6734C58.2615 62.7716 58.3895 62.9061 58.4821 63.0771C58.5758 63.248 58.6227 63.4432 58.6227 63.6627C58.6227 63.8788 58.5742 64.0718 58.4771 64.2416C58.3812 64.4104 58.2488 64.5438 58.0801 64.642C57.9114 64.739 57.7195 64.7875 57.5044 64.7875ZM60.4047 64.7875C60.2658 64.7853 60.1268 64.7589 59.9879 64.7081C59.8489 64.6574 59.7221 64.5719 59.6074 64.4517C59.4927 64.3304 59.4006 64.1666 59.3311 63.9604C59.2616 63.7531 59.2269 63.4928 59.2269 63.1796C59.2269 62.8796 59.255 62.6139 59.3113 62.3823C59.3675 62.1496 59.4491 61.9538 59.5561 61.795C59.6631 61.6351 59.7921 61.5138 59.9432 61.4311C60.0954 61.3484 60.2669 61.307 60.4577 61.307C60.6473 61.307 60.8161 61.3451 60.9639 61.4212C61.1127 61.4962 61.234 61.6009 61.3278 61.7355C61.4215 61.87 61.4822 62.025 61.5097 62.2003H61.1061C61.0686 62.0481 60.9958 61.9218 60.8878 61.8215C60.7797 61.7211 60.6363 61.671 60.4577 61.671C60.1952 61.671 59.9884 61.7851 59.8373 62.0134C59.6873 62.2417 59.6118 62.562 59.6107 62.9745H59.6372C59.6989 62.8808 59.7723 62.8008 59.8572 62.7346C59.9432 62.6674 60.038 62.6155 60.1417 62.5791C60.2454 62.5427 60.3551 62.5245 60.4709 62.5245C60.665 62.5245 60.8425 62.5731 61.0036 62.6701C61.1646 62.7661 61.2936 62.8989 61.3906 63.0688C61.4877 63.2375 61.5362 63.4311 61.5362 63.6494C61.5362 63.859 61.4893 64.0508 61.3956 64.2251C61.3019 64.3982 61.1701 64.5361 61.0002 64.6386C60.8315 64.7401 60.633 64.7897 60.4047 64.7875ZM60.4047 64.4236C60.5437 64.4236 60.6683 64.3889 60.7786 64.3194C60.89 64.2499 60.9776 64.1567 61.0416 64.0398C61.1067 63.9229 61.1392 63.7928 61.1392 63.6494C61.1392 63.5094 61.1078 63.382 61.0449 63.2673C60.9831 63.1515 60.8977 63.0594 60.7885 62.991C60.6804 62.9227 60.5569 62.8885 60.418 62.8885C60.3132 62.8885 60.2156 62.9094 60.1252 62.9513C60.0347 62.9921 59.9553 63.0484 59.8869 63.1201C59.8197 63.1917 59.7667 63.2739 59.7281 63.3665C59.6895 63.4581 59.6702 63.5546 59.6702 63.656C59.6702 63.7906 59.7017 63.9163 59.7645 64.0332C59.8285 64.1501 59.9156 64.2444 60.0259 64.3161C60.1373 64.3878 60.2636 64.4236 60.4047 64.4236ZM62.2926 64.7412L63.8079 61.7437V61.7173H62.061V61.3533H64.2314V61.7371L62.7227 64.7412H62.2926ZM65.8649 64.7875C65.6377 64.7875 65.437 64.7473 65.2628 64.6668C65.0896 64.5852 64.9545 64.4732 64.8575 64.331C64.7605 64.1876 64.7125 64.0244 64.7136 63.8413C64.7125 63.6979 64.7406 63.5656 64.7979 63.4443C64.8553 63.3219 64.9336 63.2199 65.0328 63.1383C65.1332 63.0555 65.2451 63.0032 65.3687 62.9811V62.9613C65.2065 62.9194 65.0775 62.8284 64.9816 62.6883C64.8856 62.5471 64.8382 62.3867 64.8393 62.2069C64.8382 62.0349 64.8818 61.881 64.97 61.7454C65.0582 61.6097 65.1795 61.5028 65.3339 61.4245C65.4894 61.3462 65.6664 61.307 65.8649 61.307C66.0612 61.307 66.2366 61.3462 66.391 61.4245C66.5454 61.5028 66.6667 61.6097 66.7549 61.7454C66.8442 61.881 66.8894 62.0349 66.8905 62.2069C66.8894 62.3867 66.8404 62.5471 66.7433 62.6883C66.6474 62.8284 66.52 62.9194 66.3612 62.9613V62.9811C66.4836 63.0032 66.5939 63.0555 66.692 63.1383C66.7902 63.2199 66.8685 63.3219 66.9269 63.4443C66.9854 63.5656 67.0152 63.6979 67.0163 63.8413C67.0152 64.0244 66.9655 64.1876 66.8674 64.331C66.7703 64.4732 66.6352 64.5852 66.4621 64.6668C66.2901 64.7473 66.091 64.7875 65.8649 64.7875ZM65.8649 64.4236C66.0182 64.4236 66.1506 64.3988 66.2619 64.3492C66.3733 64.2995 66.4593 64.2295 66.52 64.1391C66.5807 64.0486 66.6115 63.9428 66.6126 63.8215C66.6115 63.6935 66.5785 63.5805 66.5134 63.4823C66.4483 63.3842 66.3595 63.307 66.2471 63.2507C66.1357 63.1945 66.0083 63.1664 65.8649 63.1664C65.7205 63.1664 65.5914 63.1945 65.4778 63.2507C65.3653 63.307 65.2766 63.3842 65.2115 63.4823C65.1475 63.5805 65.1161 63.6935 65.1172 63.8215C65.1161 63.9428 65.1453 64.0486 65.2049 64.1391C65.2655 64.2295 65.3521 64.2995 65.4646 64.3492C65.5771 64.3988 65.7105 64.4236 65.8649 64.4236ZM65.8649 62.8157C65.9862 62.8157 66.0938 62.7914 66.1875 62.7429C66.2823 62.6944 66.3568 62.6266 66.4108 62.5394C66.4649 62.4523 66.4924 62.3503 66.4935 62.2334C66.4924 62.1187 66.4654 62.0189 66.4125 61.934C66.3595 61.848 66.2862 61.7818 66.1925 61.7355C66.0987 61.6881 65.9895 61.6643 65.8649 61.6643C65.7381 61.6643 65.6273 61.6881 65.5324 61.7355C65.4376 61.7818 65.3642 61.848 65.3124 61.934C65.2606 62.0189 65.2352 62.1187 65.2363 62.2334C65.2352 62.3503 65.2611 62.4523 65.3141 62.5394C65.3681 62.6266 65.4425 62.6944 65.5374 62.7429C65.6322 62.7914 65.7414 62.8157 65.8649 62.8157ZM68.7288 61.307C68.8678 61.3081 69.0067 61.3346 69.1457 61.3864C69.2846 61.4383 69.4115 61.5243 69.5262 61.6445C69.6408 61.7636 69.7329 61.9263 69.8024 62.1325C69.8719 62.3387 69.9066 62.5973 69.9066 62.9083C69.9066 63.2094 69.878 63.4768 69.8206 63.7106C69.7644 63.9433 69.6828 64.1396 69.5758 64.2995C69.4699 64.4594 69.3409 64.5808 69.1887 64.6635C69.0376 64.7462 68.8667 64.7875 68.6759 64.7875C68.4862 64.7875 68.3169 64.75 68.168 64.675C68.0203 64.5989 67.8989 64.4936 67.8041 64.3591C67.7104 64.2234 67.6503 64.0663 67.6238 63.8876H68.0274C68.0638 64.0431 68.136 64.1716 68.2441 64.2731C68.3533 64.3734 68.4972 64.4236 68.6759 64.4236C68.9372 64.4236 69.1435 64.3095 69.2946 64.0812C69.4468 63.8529 69.5228 63.5303 69.5228 63.1134H69.4964C69.4346 63.2061 69.3613 63.286 69.2764 63.3533C69.1914 63.4206 69.0972 63.4724 68.9935 63.5088C68.8898 63.5452 68.7795 63.5634 68.6626 63.5634C68.4685 63.5634 68.2904 63.5154 68.1283 63.4195C67.9673 63.3224 67.8383 63.1895 67.7412 63.0208C67.6453 62.851 67.5973 62.6569 67.5973 62.4385C67.5973 62.2312 67.6436 62.0415 67.7363 61.8695C67.83 61.6963 67.9613 61.5585 68.13 61.4559C68.2998 61.3533 68.4994 61.3037 68.7288 61.307ZM68.7288 61.671C68.5899 61.671 68.4647 61.7057 68.3533 61.7752C68.243 61.8435 68.1553 61.9362 68.0903 62.0531C68.0263 62.1689 67.9943 62.2974 67.9943 62.4385C67.9943 62.5797 68.0252 62.7082 68.087 62.824C68.1498 62.9386 68.2353 63.0302 68.3434 63.0986C68.4526 63.1658 68.5766 63.1995 68.7156 63.1995C68.8203 63.1995 68.9179 63.1791 69.0084 63.1383C69.0988 63.0964 69.1777 63.0396 69.2449 62.9679C69.3133 62.8951 69.3668 62.8129 69.4054 62.7214C69.444 62.6288 69.4633 62.5323 69.4633 62.4319C69.4633 62.2996 69.4313 62.1755 69.3673 62.0597C69.3045 61.9439 69.2174 61.8502 69.106 61.7785C68.9957 61.7068 68.87 61.671 68.7288 61.671ZM71.6622 64.7875C71.4129 64.7875 71.2007 64.7197 71.0253 64.5841C70.85 64.4473 70.716 64.2494 70.6233 63.9902C70.5307 63.7299 70.4844 63.4156 70.4844 63.0473C70.4844 62.6811 70.5307 62.3685 70.6233 62.1093C70.7171 61.8491 70.8516 61.6506 71.027 61.5138C71.2034 61.376 71.4151 61.307 71.6622 61.307C71.9092 61.307 72.1204 61.376 72.2958 61.5138C72.4722 61.6506 72.6067 61.8491 72.6994 62.1093C72.7931 62.3685 72.84 62.6811 72.84 63.0473C72.84 63.4156 72.7937 63.7299 72.701 63.9902C72.6084 64.2494 72.4744 64.4473 72.2991 64.5841C72.1237 64.7197 71.9114 64.7875 71.6622 64.7875ZM71.6622 64.4236C71.9092 64.4236 72.1011 64.3045 72.2379 64.0663C72.3746 63.8281 72.443 63.4884 72.443 63.0473C72.443 62.7539 72.4115 62.5041 72.3487 62.2979C72.2869 62.0917 72.1976 61.9345 72.0807 61.8265C71.9649 61.7184 71.8254 61.6643 71.6622 61.6643C71.4174 61.6643 71.226 61.7851 71.0882 62.0266C70.9503 62.267 70.8814 62.6073 70.8814 63.0473C70.8814 63.3406 70.9123 63.5899 70.974 63.795C71.0358 64.0001 71.1246 64.1562 71.2404 64.2631C71.3573 64.3701 71.4979 64.4236 71.6622 64.4236Z" fill="black"/>
</g>
</g>
</g>
<path d="M27.8583 83.4766C25.8554 83.4766 24.5754 82.0008 24.5754 79.6866V79.6766C24.5754 77.3926 25.8755 75.8917 27.8583 75.8917C29.4646 75.8917 30.5941 76.7952 30.8802 78.1706L30.8903 78.2208H29.9767L29.9616 78.1706C29.6654 77.237 28.9376 76.7249 27.8583 76.7249C26.4226 76.7249 25.499 77.8795 25.499 79.6766V79.6866C25.499 81.5088 26.4076 82.6433 27.8633 82.6433C29.1584 82.6433 30.0319 81.815 30.0319 80.5902V80.4145H27.9989V79.6214H30.9354V80.5049C30.9354 82.2919 29.7106 83.4766 27.8583 83.4766ZM34.635 83.4013C33.0889 83.4013 32.1553 82.317 32.1553 80.6203V80.6153C32.1553 78.9437 33.109 77.7992 34.5798 77.7992C36.0506 77.7992 36.9442 78.8935 36.9442 80.5099V80.8512H33.0488C33.0739 81.9706 33.6913 82.6232 34.6551 82.6232C35.388 82.6232 35.8398 82.2768 35.9854 81.9506L36.0054 81.9054H36.8789L36.8689 81.9455C36.6831 82.6784 35.9101 83.4013 34.635 83.4013ZM34.5748 78.5773C33.7716 78.5773 33.1592 79.1244 33.0638 80.1535H36.0556C35.9653 79.0843 35.373 78.5773 34.5748 78.5773ZM38.2995 83.3059V77.8946H39.1729V78.7078H39.2533C39.5243 78.1355 40.0313 77.7992 40.8295 77.7992C42.0443 77.7992 42.7219 78.517 42.7219 79.8021V83.3059H41.8485V80.0129C41.8485 79.0391 41.4469 78.5722 40.5835 78.5722C39.7201 78.5722 39.1729 79.1545 39.1729 80.1033V83.3059H38.2995ZM46.5119 83.4013C44.9658 83.4013 44.0321 82.317 44.0321 80.6203V80.6153C44.0321 78.9437 44.9859 77.7992 46.4567 77.7992C47.9275 77.7992 48.821 78.8935 48.821 80.5099V80.8512H44.9256C44.9507 81.9706 45.5682 82.6232 46.532 82.6232C47.2649 82.6232 47.7167 82.2768 47.8622 81.9506L47.8823 81.9054H48.7558L48.7457 81.9455C48.56 82.6784 47.7869 83.4013 46.5119 83.4013ZM46.4517 78.5773C45.6485 78.5773 45.0361 79.1244 44.9407 80.1535H47.9325C47.8421 79.0843 47.2498 78.5773 46.4517 78.5773ZM50.1764 83.3059V77.8946H51.0498V78.6977H51.1301C51.3359 78.1305 51.8429 77.7992 52.5758 77.7992C52.7415 77.7992 52.9272 77.8193 53.0125 77.8343V78.6827C52.8318 78.6525 52.6662 78.6325 52.4754 78.6325C51.6421 78.6325 51.0498 79.1595 51.0498 79.9527V83.3059H50.1764ZM55.5777 83.4013C54.5486 83.4013 53.7705 82.7788 53.7705 81.7949V81.7849C53.7705 80.8211 54.4833 80.2639 55.7433 80.1886L57.2944 80.0932V79.6013C57.2944 78.9337 56.8878 78.5722 56.0796 78.5722C55.4321 78.5722 55.0054 78.8132 54.8649 79.2348L54.8598 79.2499H53.9864L53.9914 79.2198C54.132 78.3714 54.9552 77.7992 56.1098 77.7992C57.43 77.7992 58.1679 78.4769 58.1679 79.6013V83.3059H57.2944V82.5078H57.2141C56.8728 83.085 56.3055 83.4013 55.5777 83.4013ZM54.6641 81.7749C54.6641 82.322 55.1309 82.6433 55.7584 82.6433C56.6469 82.6433 57.2944 82.061 57.2944 81.2879V80.796L55.8487 80.8864C55.0255 80.9366 54.6641 81.2277 54.6641 81.7648V81.7749ZM59.8144 83.3059V75.7461H60.6878V83.3059H59.8144ZM67.2487 83.3059V76.8755H64.9145V76.0623H70.4865V76.8755H68.1523V83.3059H67.2487ZM71.5808 85.2034C71.4653 85.2034 71.3148 85.1934 71.1943 85.1733V84.4554C71.2997 84.4755 71.4352 84.4805 71.5557 84.4805C72.0527 84.4805 72.3539 84.2547 72.5496 83.6322L72.65 83.3109L70.6471 77.8946H71.5808L73.0667 82.3471H73.147L74.6278 77.8946H75.5465L73.4331 83.6372C72.9864 84.852 72.5396 85.2034 71.5808 85.2034ZM76.701 85.113V77.8946H77.5745V78.758H77.6548C77.9861 78.1556 78.5885 77.7992 79.3414 77.7992C80.7118 77.7992 81.6104 78.9086 81.6104 80.5952V80.6053C81.6104 82.3019 80.7169 83.4013 79.3414 83.4013C78.5985 83.4013 77.9509 83.0298 77.6548 82.4525H77.5745V85.113H76.701ZM79.1406 82.6282C80.1295 82.6282 80.7169 81.8652 80.7169 80.6053V80.5952C80.7169 79.3352 80.1295 78.5722 79.1406 78.5722C78.1568 78.5722 77.5544 79.3453 77.5544 80.5952V80.6053C77.5544 81.8552 78.1568 82.6282 79.1406 82.6282ZM85.1845 83.4013C83.6384 83.4013 82.7047 82.317 82.7047 80.6203V80.6153C82.7047 78.9437 83.6585 77.7992 85.1293 77.7992C86.6001 77.7992 87.4936 78.8935 87.4936 80.5099V80.8512H83.5982C83.6233 81.9706 84.2408 82.6232 85.2046 82.6232C85.9374 82.6232 86.3892 82.2768 86.5348 81.9506L86.5549 81.9054H87.4283L87.4183 81.9455C87.2326 82.6784 86.4595 83.4013 85.1845 83.4013ZM85.1242 78.5773C84.3211 78.5773 83.7087 79.1244 83.6133 80.1535H86.6051C86.5147 79.0843 85.9224 78.5773 85.1242 78.5773ZM90.7063 83.4013C89.5015 83.4013 88.6732 82.819 88.5728 81.9255H89.4664C89.6119 82.3772 90.0437 82.6734 90.7364 82.6734C91.4643 82.6734 91.9813 82.327 91.9813 81.8351V81.8251C91.9813 81.4586 91.7052 81.2026 91.0376 81.042L90.1993 80.8412C89.1853 80.6002 88.7285 80.1585 88.7285 79.3804V79.3754C88.7285 78.4769 89.5919 77.7992 90.7414 77.7992C91.8759 77.7992 92.664 78.3664 92.7845 79.2499H91.9261C91.8106 78.8232 91.389 78.5271 90.7364 78.5271C90.0938 78.5271 89.622 78.8584 89.622 79.3352V79.3453C89.622 79.7117 89.8931 79.9426 90.5306 80.0983L91.3639 80.299C92.3829 80.545 92.8748 80.9868 92.8748 81.7598V81.7698C92.8748 82.7337 91.9361 83.4013 90.7063 83.4013Z" fill="#090909"/>
</g>
<defs>
<filter id="filter0_d_1806_481296" x="0.000887394" y="-8.91685e-05" width="115.963" height="97.9631" filterUnits="userSpaceOnUse" color-interpolation-filters="sRGB">
<feFlood flood-opacity="0" result="BackgroundImageFix"/>
<feColorMatrix in="SourceAlpha" type="matrix" values="0 0 0 0 0 0 0 0 0 0 0 0 0 0 0 0 0 0 127 0" result="hardAlpha"/>
<feOffset/>
<feGaussianBlur stdDeviation="3.49077"/>
<feComposite in2="hardAlpha" operator="out"/>
<feColorMatrix type="matrix" values="0 0 0 0 0 0 0 0 0 0 0 0 0 0 0 0 0 0 0.2 0"/>
<feBlend mode="normal" in2="BackgroundImageFix" result="effect1_dropShadow_1806_481296"/>
<feBlend mode="normal" in="SourceGraphic" in2="effect1_dropShadow_1806_481296" result="shape"/>
</filter>
<filter id="filter1_d_1806_481296" x="12.2196" y="8.72696" width="92.506" height="66.3246" filterUnits="userSpaceOnUse" color-interpolation-filters="sRGB">
<feFlood flood-opacity="0" result="BackgroundImageFix"/>
<feColorMatrix in="SourceAlpha" type="matrix" values="0 0 0 0 0 0 0 0 0 0 0 0 0 0 0 0 0 0 127 0" result="hardAlpha"/>
<feOffset/>
<feGaussianBlur stdDeviation="3.49077"/>
<feComposite in2="hardAlpha" operator="out"/>
<feColorMatrix type="matrix" values="0 0 0 0 0 0 0 0 0 0 0 0 0 0 0 0 0 0 0.25 0"/>
<feBlend mode="normal" in2="BackgroundImageFix" result="effect1_dropShadow_1806_481296"/>
<feBlend mode="normal" in="SourceGraphic" in2="effect1_dropShadow_1806_481296" result="shape"/>
</filter>
<clipPath id="clip0_1806_481296">
<rect x="19.2012" y="15.7085" width="78.5423" height="52.3615" rx="1.74538" fill="white"/>
</clipPath>
<clipPath id="clip1_1806_481296">
<rect width="78.5264" height="52.4061" fill="white" transform="translate(19.2012 15.7085)"/>
</clipPath>
</defs>
</svg>
